<?xml version="1.0" standalone="no"?>
<!DOCTYPE svg PUBLIC "-//W3C//DTD SVG 20010904//EN"
 "http://www.w3.org/TR/2001/REC-SVG-20010904/DTD/svg10.dtd">
<svg version="1.0" xmlns="http://www.w3.org/2000/svg"
 width="457.000000pt" height="457.000000pt" viewBox="0 0 457.000000 457.000000"
 preserveAspectRatio="xMidYMid meet">

<g transform="translate(0.000000,457.000000) scale(0.100000,-0.100000)"
fill="#000000" stroke="none">
<path d="M0 4064 c0 -443 2 -505 15 -494 19 16 106 -2 120 -26 6 -9 18 -26 27
-36 10 -10 18 -19 18 -20 0 -2 -24 -3 -53 -3 -43 0 -61 -5 -90 -28 l-37 -28 0
-90 c0 -78 3 -94 25 -129 l25 -40 -25 0 -25 0 0 -297 c0 -164 4 -303 8 -309 4
-6 21 -15 38 -21 30 -11 30 -10 26 21 -4 29 -3 30 11 11 14 -18 15 -17 13 25
-1 25 -5 51 -10 59 -6 10 -5 12 2 7 7 -4 12 -2 12 4 0 6 4 9 8 6 4 -2 8 4 8
14 0 10 -3 17 -6 15 -4 -2 -7 2 -7 10 0 8 4 12 8 9 4 -2 10 9 14 26 4 17 11
27 16 24 6 -3 5 -12 -3 -21 -12 -15 -11 -15 10 -2 12 8 22 20 22 27 0 9 6 12
16 8 14 -5 15 -4 4 8 -6 9 -10 20 -8 27 2 6 22 -9 44 -33 22 -23 59 -60 82
-80 23 -21 36 -38 30 -39 -7 0 2 -5 21 -11 26 -7 31 -12 20 -19 -20 -12 -37
-11 -19 2 13 9 13 10 0 6 -24 -6 -14 -69 20 -126 16 -29 30 -56 30 -62 0 -5
-17 -28 -38 -52 -77 -86 -113 -150 -122 -218 -11 -83 -60 -195 -78 -177 -11
11 -12 10 -6 -5 6 -17 -29 -128 -50 -156 -9 -12 -8 -13 4 -7 8 4 7 1 -4 -8
-10 -8 -16 -22 -13 -30 3 -8 -1 -17 -10 -20 -19 -8 -32 2 -16 12 8 5 7 11 -3
19 -8 8 -15 9 -19 3 -4 -6 -11 -7 -17 -4 -8 5 -9 1 -4 -11 6 -18 6 -18 -15 1
l-23 19 17 -25 c18 -26 22 -45 9 -36 -5 3 -9 -1 -9 -9 0 -12 4 -12 21 1 11 8
30 14 41 14 11 0 29 7 39 15 11 8 14 15 8 15 -7 0 -12 5 -12 12 0 6 10 2 23
-10 14 -13 36 -22 55 -22 30 0 31 2 25 30 -5 26 -2 30 15 30 11 0 27 2 34 5 9
4 20 -7 31 -30 16 -34 19 -35 72 -35 52 0 55 -1 55 -25 0 -23 -4 -25 -46 -25
-42 0 -45 -1 -39 -22 4 -13 16 -36 27 -52 12 -17 15 -26 7 -22 -8 4 -5 1 5 -8
10 -8 23 -13 28 -10 5 3 7 0 6 -8 -2 -8 4 -12 16 -10 10 2 16 -1 12 -6 -3 -5
1 -9 8 -9 7 0 12 7 11 16 -1 9 0 10 2 4 11 -31 31 -6 66 80 21 50 41 99 44
107 3 8 -6 4 -22 -10 -16 -14 -25 -19 -21 -13 5 9 2 11 -8 7 -9 -3 -13 -10
-10 -15 7 -13 2 -11 -37 8 -18 9 -58 22 -89 28 l-55 11 -6 54 c-3 30 -9 80
-14 110 l-8 55 42 -51 c30 -36 62 -61 109 -84 64 -31 66 -32 100 -16 26 13 37
14 48 5 11 -9 14 -8 14 4 0 9 4 18 10 22 5 3 5 -7 -1 -24 -10 -27 -13 -29 -26
-16 -22 22 -29 18 -9 -4 10 -11 31 -23 48 -26 17 -4 27 -12 25 -18 -3 -7 -12
-28 -21 -48 l-15 -37 40 -4 c24 -2 43 1 47 8 12 20 86 52 137 59 28 4 60 13
72 21 12 8 34 14 48 14 15 0 34 4 44 10 12 6 29 5 48 -2 28 -11 34 -8 75 25
53 43 65 47 42 12 -9 -14 -12 -25 -7 -25 5 0 33 46 62 103 l53 102 -39 -36
c-69 -64 -228 -129 -316 -129 -37 0 -70 35 -63 65 14 55 28 77 88 137 71 71
137 107 218 118 45 6 35 8 -55 8 -117 -1 -178 7 -183 23 -2 5 -8 9 -13 9 -6 0
-7 -4 -4 -10 3 -5 -3 -10 -15 -10 -13 0 -19 4 -14 11 5 8 2 9 -11 2 -32 -18
-158 23 -152 49 1 7 -5 12 -13 13 -8 0 -21 12 -30 28 -66 119 274 197 560 127
52 -12 125 -36 163 -53 l67 -30 -24 -22 c-14 -13 -37 -47 -51 -76 -33 -64 -29
-62 22 13 22 33 65 77 103 105 l65 48 0 120 c0 66 -1 107 -3 90 -5 -41 -15
-49 -43 -35 -44 23 -88 90 -59 90 5 0 14 10 20 23 10 20 10 20 -3 5 -23 -28
-26 -21 -10 23 7 23 13 48 11 56 -2 11 -126 73 -145 73 -2 0 5 -12 14 -27 l18
-28 -30 25 c-17 14 -33 30 -35 35 -2 6 -18 19 -35 30 -40 27 -43 73 -9 131 20
33 30 42 49 39 14 -1 22 2 19 7 -3 5 -12 7 -20 4 -8 -3 -14 -1 -14 4 0 6 4 10
9 10 5 0 12 9 16 20 9 29 127 175 207 255 38 39 78 89 88 113 24 53 17 55 -10
2 -13 -25 -25 -38 -32 -34 -6 4 -8 3 -5 -4 8 -11 -178 -218 -193 -215 -5 2 -7
-3 -4 -11 3 -7 -2 -16 -10 -19 -14 -6 -33 26 -28 45 1 4 -5 5 -13 2 -15 -6
-37 33 -28 49 2 4 0 7 -5 7 -23 0 -63 136 -57 195 4 35 3 37 -6 15 -17 -39 -3
-117 35 -197 32 -66 33 -74 18 -83 -9 -5 -12 -10 -6 -10 5 0 15 5 22 12 9 9
12 9 12 0 0 -7 -5 -12 -11 -12 -5 0 -8 -4 -4 -9 3 -5 0 -13 -6 -17 -7 -4 -9
-3 -5 4 3 6 -2 13 -11 17 -10 3 -29 20 -42 36 -20 26 -22 33 -10 41 11 7 9 8
-5 3 -23 -7 -71 42 -164 165 -70 93 -369 438 -471 543 l-76 78 -47 -6 c-76
-11 -152 10 -187 51 -35 39 -38 49 -15 58 32 12 57 5 84 -24 23 -25 36 -30 72
-30 l43 1 -70 65 c-64 59 -73 64 -107 62 -37 -3 -38 -2 -38 28 0 28 -9 39 -67
82 -38 27 -78 58 -91 69 -22 20 -22 21 -2 26 11 3 18 2 15 -3 -3 -4 3 -14 12
-21 12 -10 14 -10 9 -1 -4 6 -2 12 3 12 6 0 11 -4 11 -10 0 -5 5 -10 12 -10 6
0 4 7 -5 18 -10 10 -17 24 -17 30 0 6 -7 9 -15 6 -8 -4 -15 -2 -15 3 0 16 39
12 43 -5 3 -10 5 -4 6 11 0 16 -3 26 -8 22 -5 -3 -12 -1 -15 3 -3 5 5 9 17 8
16 -1 22 -7 21 -22 -1 -15 5 -20 20 -19 22 2 28 22 14 41 -5 7 -46 12 -103 13
l-95 2 0 -507z m196 471 c1 -9 -4 -11 -14 -7 -10 4 -12 7 -4 10 7 2 9 9 5 15
-3 7 -2 8 2 4 5 -4 10 -14 11 -22z m134 -521 c142 -66 304 -209 440 -388 55
-73 100 -136 100 -140 0 -4 -30 20 -67 53 -161 142 -198 172 -267 215 -41 26
-94 54 -118 63 -39 14 -48 14 -74 2 -27 -13 -29 -19 -34 -84 l-5 -70 -36 50
c-19 28 -48 72 -63 99 -16 27 -39 64 -52 83 -45 66 -41 132 9 153 32 14 82 3
167 -36z m341 -470 c78 -42 166 -139 279 -306 54 -81 179 -242 277 -358 301
-356 296 -349 219 -314 -70 32 -174 54 -257 54 -293 1 -557 83 -695 217 -78
76 -79 145 -2 172 46 16 150 13 225 -6 68 -17 246 -102 306 -146 41 -31 68
-44 41 -20 -25 22 -60 48 -96 71 -154 99 -268 192 -359 293 -175 194 -227 321
-150 365 42 24 146 13 212 -22z m360 -146 c30 -45 48 -82 43 -89 -4 -7 -3 -9
3 -6 13 8 26 -20 16 -35 -3 -7 -1 -8 5 -4 7 4 12 5 12 2 0 -2 3 -13 6 -23 5
-15 4 -16 -6 -3 -10 13 -11 13 -7 0 2 -8 10 -14 16 -12 15 3 73 -89 66 -106
-2 -7 0 -10 5 -7 14 9 12 -9 -2 -23 -10 -10 -10 -15 2 -22 22 -14 33 -12 26 5
-10 26 3 16 19 -15 12 -23 13 -35 5 -50 -10 -18 -16 -14 -66 52 -30 40 -80
125 -110 188 -69 143 -110 225 -136 270 l-20 35 36 -40 c19 -22 59 -75 87
-117z m-759 0 c43 -50 44 -56 21 -122 -14 -38 -25 -52 -50 -63 -49 -20 -59
-16 -32 13 20 21 24 36 24 83 0 52 -4 62 -37 103 l-38 46 38 -9 c25 -5 49 -22
74 -51z m-158 31 c14 -11 26 -28 26 -37 -1 -16 -2 -16 -14 1 -14 19 -51 23
-61 7 -11 -18 -35 -11 -28 8 17 47 37 52 77 21z m86 -73 c0 -11 -12 -29 -25
-39 -14 -10 -25 -13 -25 -8 0 5 5 13 11 17 7 4 9 23 5 53 l-6 46 20 -24 c11
-13 20 -33 20 -45z m-80 4 c0 -5 -5 -10 -11 -10 -5 0 -7 5 -4 10 3 6 8 10 11
10 2 0 4 -4 4 -10z m-19 -37 c20 5 20 5 3 -14 -22 -25 -42 -24 -71 3 -37 34
-29 51 12 27 20 -12 44 -19 56 -16z m300 -21 c14 -9 49 -42 77 -73 28 -31 76
-75 107 -99 30 -24 54 -44 53 -46 -2 -1 -24 1 -49 6 -25 5 -102 10 -172 11
-142 2 -162 10 -133 53 16 26 77 49 102 39 19 -7 18 -2 -11 37 -26 36 -34 90
-12 90 6 0 24 -8 38 -18z m-210 -40 c-14 -27 -79 -82 -96 -82 -8 0 -22 12 -32
28 -9 15 -26 37 -37 50 -23 25 -11 28 30 7 39 -20 73 -19 109 4 35 21 41 20
26 -7z m427 -608 c48 -20 130 -52 182 -70 52 -18 88 -34 79 -34 -9 0 -64 -16
-123 -35 -170 -56 -244 -61 -261 -17 -8 21 33 62 61 62 37 0 37 18 -1 30 -19
6 -48 25 -66 41 -26 24 -29 32 -19 44 19 23 54 18 148 -21z m-543 -45 c-4 -5
-12 -9 -18 -8 -9 0 -8 2 1 6 6 2 9 10 6 15 -4 7 -2 8 5 4 6 -4 9 -12 6 -17z
m-18 -44 c0 -8 -4 -12 -9 -9 -10 7 -10 24 0 24 5 0 9 -7 9 -15z m568 -336 l50
-49 -45 0 c-25 1 -64 5 -87 9 -39 7 -48 5 -103 -29 -76 -47 -98 -67 -102 -94
-3 -16 -7 -12 -16 19 -19 64 -15 91 21 132 60 70 63 71 152 66 80 -5 80 -5
130 -54z m-50 -110 c8 -15 15 -30 15 -32 0 -2 -24 -2 -54 1 -30 2 -63 -1 -75
-7 -11 -7 -21 -9 -21 -6 0 15 41 84 52 88 24 8 69 -15 83 -44z m177 -45 c15
-38 28 -72 28 -76 0 -9 -60 -98 -66 -98 -3 0 -3 4 1 9 3 5 -4 13 -16 16 -16 5
-20 13 -16 31 2 13 -2 50 -9 82 -10 43 -21 64 -46 85 l-33 27 64 -3 65 -4 28
-69z m-335 18 c-10 -10 -17 -27 -17 -38 0 -21 38 -84 78 -126 l25 -27 -24 6
c-35 8 -91 52 -83 65 4 6 3 8 -3 5 -18 -11 -36 21 -29 50 4 16 8 36 10 46 3
20 23 37 45 37 11 0 11 -4 -2 -18z m219 -74 c6 -41 3 -49 -19 -72 -40 -40 -73
-44 -107 -11 l-30 28 58 19 c65 22 80 37 76 74 -5 46 15 11 22 -38z m-141 12
c0 -35 -6 -37 -28 -12 -13 14 -14 21 -5 30 20 20 33 13 33 -18z m72 -2 c-3 -8
-6 -5 -6 6 -1 11 2 17 5 13 3 -3 4 -12 1 -19z m132 -130 c-2 -2 -17 -14 -33
-28 l-29 -25 13 24 c19 37 34 50 44 40 5 -5 8 -10 5 -11z m-636 -103 c-3 -9
-8 -14 -10 -11 -3 3 -2 9 2 15 9 16 15 13 8 -4z"/>
<path d="M4203 4550 c-11 -16 -10 -18 1 -14 15 6 30 34 18 34 -4 0 -13 -9 -19
-20z"/>
<path d="M4278 4553 c6 -9 18 -18 27 -19 15 -2 14 0 -3 17 -26 23 -36 25 -24
2z"/>
<path d="M4546 4561 c-3 -5 0 -14 7 -19 10 -8 13 -6 14 9 2 19 -11 26 -21 10z"/>
<path d="M4544 4509 c-4 -8 -3 -9 4 -5 7 4 12 4 11 -1 0 -4 -44 -36 -97 -71
-119 -77 -279 -207 -435 -355 -66 -62 -123 -114 -128 -115 -5 -2 -7 -8 -3 -13
34 -56 -230 181 -279 251 -12 16 -11 12 2 -11 12 -20 18 -38 15 -42 -3 -3 27
-30 68 -59 110 -82 192 -175 219 -248 24 -66 34 -76 18 -16 -6 21 -8 40 -6 42
2 3 33 -2 68 -10 35 -9 122 -29 193 -46 l129 -31 81 39 c45 22 100 45 124 52
l42 13 0 104 c0 76 -3 103 -12 103 -10 0 -10 2 0 9 11 7 11 9 -1 14 -8 3 -20
1 -26 -4 -6 -5 -9 -6 -6 -3 8 12 -57 54 -83 54 -47 0 -148 -32 -221 -70 -120
-63 -114 -36 11 47 127 84 214 128 288 144 l50 11 0 108 c0 101 -8 137 -26
109z m-470 -502 c-69 -50 -84 -60 -84 -53 0 9 115 96 129 96 7 0 -13 -19 -45
-43z m255 -21 l24 -13 -24 -16 c-47 -31 -95 -45 -179 -52 -47 -4 -95 -11 -108
-16 -33 -13 -18 9 16 23 26 11 232 84 242 86 3 1 16 -5 29 -12z"/>
<path d="M2338 4443 c7 -3 16 -2 19 1 4 3 -2 6 -13 5 -11 0 -14 -3 -6 -6z"/>
<path d="M2460 4389 c20 -19 30 -34 23 -36 -7 -3 -9 -12 -6 -21 4 -12 0 -11
-16 6 -12 12 -25 22 -28 22 -4 0 -2 -5 5 -12 15 -15 16 -32 1 -23 -6 4 -5 -2
2 -13 9 -15 17 -18 25 -11 8 7 12 6 11 -3 -2 -57 23 -64 34 -9 8 40 -18 90
-59 116 -21 14 -20 10 8 -16z"/>
<path d="M2680 4370 c19 -17 49 -38 65 -47 39 -20 23 -5 -45 41 -50 34 -52 34
-20 6z"/>
<path d="M1664 4338 l-19 -23 23 19 c21 18 27 26 19 26 -2 0 -12 -10 -23 -22z"/>
<path d="M2390 4295 c0 -6 5 -16 11 -22 9 -9 2 -9 -24 -3 -20 4 -36 5 -35 1 2
-21 -5 -30 -31 -36 -16 -3 -36 -14 -43 -23 -11 -15 -11 -15 2 -6 8 6 25 15 38
19 19 5 23 3 22 -12 -4 -37 0 -43 35 -43 60 0 82 61 41 115 -9 11 -16 15 -16
10z"/>
<path d="M2462 4250 c0 -19 2 -27 5 -17 2 9 2 25 0 35 -3 9 -5 1 -5 -18z"/>
<path d="M1616 4253 c-6 -14 -5 -15 5 -6 7 7 10 15 7 18 -3 3 -9 -2 -12 -12z"/>
<path d="M2149 4243 c-13 -16 -12 -17 4 -4 9 7 17 15 17 17 0 8 -8 3 -21 -13z"/>
<path d="M3542 4204 c10 -10 20 -16 22 -13 3 3 -5 11 -17 18 -21 13 -21 12 -5
-5z"/>
<path d="M2642 4170 c37 -29 27 -53 -19 -45 -19 3 -32 1 -29 -4 3 -5 -5 -12
-19 -15 -14 -4 -43 -22 -64 -42 -27 -24 -42 -31 -47 -23 -5 8 -3 9 6 4 9 -6
11 -4 5 5 -5 8 -4 11 1 7 6 -3 15 3 22 14 7 10 10 19 7 19 -3 0 -69 -51 -124
-96 -2 -2 4 -13 14 -24 14 -15 15 -20 4 -17 -8 2 -11 2 -7 0 4 -3 -5 -16 -20
-29 -19 -18 -21 -22 -7 -16 11 6 29 20 40 32 15 17 17 25 8 40 -14 21 0 38 36
45 24 4 27 -4 9 -25 -7 -8 12 8 42 37 60 57 102 77 137 68 13 -3 23 -1 23 6 0
6 7 3 16 -6 12 -12 19 -13 30 -4 8 6 14 14 14 17 0 3 -5 1 -11 -5 -9 -9 -15
-8 -26 3 -8 7 -12 18 -9 23 6 9 -17 32 -44 45 -8 4 -3 -2 12 -14z"/>
<path d="M2429 4153 l-24 -28 28 24 c25 23 32 31 24 31 -2 0 -14 -12 -28 -27z"/>
<path d="M2554 4158 l-19 -23 23 19 c12 11 22 21 22 23 0 8 -8 2 -26 -19z"/>
<path d="M2241 4160 c-1 -9 4 -21 9 -26 8 -8 6 -15 -6 -25 -12 -9 -15 -10 -10
-1 4 7 2 12 -4 12 -6 0 -8 6 -5 13 4 6 -1 3 -9 -7 -11 -13 -16 -15 -16 -6 0 7
-3 11 -6 7 -11 -11 8 -48 24 -46 30 3 37 -1 22 -12 -11 -7 -4 -8 25 -4 30 5
36 4 25 -4 -12 -8 -7 -11 22 -11 46 0 70 9 61 23 -4 6 0 8 9 4 10 -3 25 5 39
21 14 15 16 20 6 12 -20 -15 -110 -15 -115 1 -2 5 -11 9 -20 8 -11 0 -12 -2
-4 -6 6 -2 9 -10 6 -15 -5 -7 -2 -8 7 -3 12 7 12 6 1 -6 -11 -12 -15 -11 -25
6 -6 11 -12 22 -13 25 -5 22 -23 52 -23 40z"/>
<path d="M2479 4153 c-13 -16 -12 -17 4 -4 16 13 21 21 13 21 -2 0 -10 -8 -17
-17z"/>
<path d="M1840 4130 c-6 -11 -8 -20 -6 -20 3 0 10 9 16 20 6 11 8 20 6 20 -3
0 -10 -9 -16 -20z"/>
<path d="M2072 4115 c2 -11 -1 -25 -5 -32 -4 -6 -2 -15 4 -19 7 -4 9 -3 5 4
-3 5 -1 12 4 14 8 2 8 11 1 28 -8 19 -10 20 -9 5z"/>
<path d="M2375 4120 c-16 -7 -17 -9 -3 -9 9 -1 20 4 23 9 7 11 7 11 -20 0z"/>
<path d="M2026 4107 c3 -10 9 -15 12 -12 3 3 0 11 -7 18 -10 9 -11 8 -5 -6z"/>
<path d="M1816 4085 c-9 -26 -7 -32 5 -12 6 10 9 21 6 23 -2 3 -7 -2 -11 -11z"/>
<path d="M2717 4079 c7 -7 15 -10 18 -7 3 3 -2 9 -12 12 -14 6 -15 5 -6 -5z"/>
<path d="M2800 4079 c0 -5 5 -7 10 -4 6 3 10 8 10 11 0 2 -4 4 -10 4 -5 0 -10
-5 -10 -11z"/>
<path d="M2758 4063 c7 -3 16 -2 19 1 4 3 -2 6 -13 5 -11 0 -14 -3 -6 -6z"/>
<path d="M1801 4034 c0 -11 3 -14 6 -6 3 7 2 16 -1 19 -3 4 -6 -2 -5 -13z"/>
<path d="M2425 4000 c-3 -5 -1 -10 4 -10 6 0 11 5 11 10 0 6 -2 10 -4 10 -3 0
-8 -4 -11 -10z"/>
<path d="M2167 3969 c7 -7 15 -10 18 -7 3 3 -2 9 -12 12 -14 6 -15 5 -6 -5z"/>
<path d="M2790 3938 c3 -3 21 -10 40 -17 19 -6 30 -7 25 -2 -6 5 -23 13 -40
17 -16 4 -28 5 -25 2z"/>
<path d="M3275 3916 c31 -27 67 -46 88 -46 7 0 -6 9 -28 20 -22 11 -51 27 -65
36 -18 12 -17 10 5 -10z"/>
<path d="M2876 3899 c3 -5 -8 -9 -24 -9 -29 0 -112 -51 -112 -69 0 -6 5 -13
11 -17 12 -7 31 15 23 28 -3 4 0 8 6 8 7 0 9 -7 6 -16 -3 -9 -6 -20 -6 -25 0
-5 -8 -9 -17 -10 -13 0 -12 -3 6 -10 15 -6 28 -6 36 1 9 7 20 4 38 -10 15 -12
30 -21 34 -21 4 -1 7 -5 5 -11 -1 -5 2 -7 8 -3 6 3 8 10 5 14 -2 5 7 9 20 9
23 0 24 -2 8 -14 -17 -12 -17 -12 2 -11 13 1 19 -3 17 -13 -2 -11 1 -10 12 3
9 12 16 14 21 7 3 -5 11 -7 17 -4 7 4 8 2 4 -4 -4 -7 -3 -12 2 -12 5 0 14 -12
20 -26 7 -15 17 -22 24 -18 7 5 8 3 3 -6 -4 -7 -2 -16 5 -20 7 -4 14 -23 15
-42 1 -18 12 -67 24 -108 12 -41 23 -100 24 -131 1 -31 5 -55 8 -53 4 2 9 -12
11 -31 2 -19 1 -35 -3 -35 -18 0 -39 13 -39 24 0 15 -103 226 -111 226 -4 0
-2 -21 3 -47 10 -55 8 -123 -4 -123 -16 0 -8 -18 10 -22 11 -3 18 1 19 11 4
63 7 71 22 56 12 -11 12 -17 1 -30 -11 -13 -10 -15 4 -9 9 3 16 2 17 -2 0 -5
3 -21 5 -36 l5 -27 -45 13 c-31 9 -48 10 -55 3 -7 -7 -15 -6 -27 4 -15 13 -15
14 6 19 22 5 22 6 4 20 -10 8 -15 10 -11 4 4 -7 -2 -14 -13 -17 -15 -4 -35 11
-79 59 -59 62 -59 63 -42 24 10 -22 22 -44 26 -48 5 -4 5 -1 1 6 -11 19 1 14
26 -11 13 -12 37 -33 53 -45 26 -21 27 -23 7 -19 -13 3 -20 1 -16 -5 4 -6 -4
-8 -18 -6 -14 1 -33 -3 -42 -11 -9 -7 -25 -11 -36 -8 -11 3 -18 1 -14 -4 9
-15 -14 -10 -28 6 -7 9 -18 21 -23 28 -6 7 -19 35 -29 62 -10 28 -24 57 -30
65 -6 8 -1 6 12 -4 30 -26 28 -12 -4 29 -31 41 -64 142 -64 193 0 28 3 33 10
22 8 -12 10 -10 10 8 0 13 4 20 10 17 6 -3 10 -1 10 5 0 6 5 16 10 23 6 7 18
21 26 32 9 11 12 13 8 5 -7 -13 -5 -13 9 -1 14 11 17 11 17 -1 0 -24 24 -68
37 -68 7 0 12 -3 12 -7 -3 -21 2 -33 14 -30 6 1 11 -6 11 -15 -1 -9 4 -19 12
-22 10 -4 11 0 4 19 -5 14 -6 25 -1 25 5 0 12 -7 15 -16 3 -8 10 -13 15 -9 6
3 8 -4 6 -15 -2 -11 0 -18 6 -15 5 4 9 1 9 -4 0 -6 4 -11 9 -11 15 0 -10 54
-54 116 -23 33 -47 58 -54 57 -6 -2 -10 0 -9 5 3 10 -25 72 -33 72 -12 0 -31
-29 -25 -39 4 -5 1 -13 -5 -17 -7 -4 -9 -3 -5 4 3 6 -31 -27 -77 -72 -107
-106 -136 -116 -226 -80 -50 20 -71 24 -95 17 -34 -10 -80 -68 -73 -94 3 -9
-10 -30 -29 -49 -33 -32 -35 -33 -102 -27 -53 4 -69 3 -69 -8 0 -7 6 -11 13
-8 18 7 21 -4 29 -112 8 -114 38 -248 66 -294 17 -28 21 -30 39 -19 16 11 23
10 37 -5 16 -16 16 -19 3 -27 -8 -6 -23 -8 -32 -6 -16 4 -16 2 -2 -28 9 -17
36 -50 61 -73 33 -32 40 -43 26 -44 -16 0 -15 -2 3 -11 16 -7 33 -5 73 12 41
18 51 27 51 47 0 14 -4 21 -10 18 -5 -3 -10 -13 -10 -20 0 -15 -40 -30 -74
-27 -22 1 -66 40 -66 58 0 6 8 18 17 25 11 10 14 10 9 2 -7 -12 5 -18 27 -14
5 1 6 -3 3 -8 -8 -12 33 -26 44 -14 5 4 10 23 12 42 2 20 9 36 18 38 12 4 12
3 2 -5 -11 -7 -11 -10 2 -15 18 -7 20 1 7 37 -7 16 -7 26 0 28 5 2 -4 18 -20
35 -16 18 -36 31 -43 29 -7 -3 -46 -7 -87 -10 -67 -5 -73 -5 -66 12 5 9 14 37
21 62 7 25 13 36 13 26 1 -11 3 -17 6 -14 8 7 -23 213 -36 241 -9 21 -9 21 -4
-3 2 -14 8 -73 11 -132 6 -89 4 -116 -10 -153 -17 -43 -35 -59 -37 -32 -1 6
-1 63 1 126 2 109 1 114 -18 109 -16 -4 -18 -2 -14 15 4 15 2 18 -9 12 -11 -7
-11 -5 1 10 8 10 10 16 5 13 -7 -4 -11 6 -10 25 0 31 1 32 52 37 52 5 53 5 62
-25 15 -50 22 -103 14 -107 -4 -3 -2 -3 5 -2 7 2 12 -7 12 -21 0 -14 4 -25 9
-25 5 0 14 -14 21 -30 7 -17 17 -33 22 -36 7 -4 7 0 0 12 -44 86 -73 186 -71
249 l1 40 10 -43 c5 -23 14 -40 19 -36 5 3 9 2 8 -3 -1 -4 0 -15 3 -23 3 -8
20 -61 37 -118 18 -57 35 -101 39 -98 3 3 14 -2 26 -11 14 -13 13 -9 -6 17
-14 19 -31 46 -38 59 -11 21 -10 23 4 18 10 -4 15 -3 12 1 -9 15 -15 62 -8 62
8 -1 42 -71 42 -88 0 -7 5 -12 11 -12 6 0 8 -8 4 -19 -3 -11 -1 -22 5 -26 6
-3 8 -10 5 -15 -3 -4 2 -13 10 -20 10 -9 15 -9 15 -1 0 6 -5 11 -11 11 -8 0
-8 5 1 15 10 12 10 15 -3 15 -10 0 -14 6 -11 14 3 8 -4 33 -16 56 -25 49 -33
111 -13 103 16 -6 17 -15 2 -30 -7 -7 -3 -9 17 -5 20 4 25 2 19 -8 -5 -9 -4
-11 4 -6 7 5 25 -6 44 -27 18 -19 45 -42 61 -51 16 -10 -7 17 -51 60 -104 104
-190 249 -160 271 7 5 19 8 27 7 8 -1 21 -2 29 -3 8 0 12 -4 8 -7 -8 -8 75
-173 119 -235 18 -27 34 -51 34 -55 0 -8 18 -25 63 -58 23 -18 35 -23 31 -13
-3 8 -12 18 -19 21 -11 4 -61 101 -113 216 l-11 25 0 -25 c-1 -15 4 -31 11
-38 7 -7 8 -12 3 -12 -6 0 -6 -3 0 -8 6 -4 23 -32 39 -62 31 -60 12 -53 -26 9
-12 20 -25 38 -29 41 -14 11 -50 93 -64 148 -14 57 -15 85 -2 98 3 4 4 -3 2
-16 -4 -22 -4 -22 17 -4 20 18 21 18 15 1 -5 -13 -3 -16 5 -10 7 4 27 6 45 4
17 -1 43 5 56 14 l25 16 7 -56 c3 -30 10 -53 15 -50 4 3 6 -4 3 -14 -5 -20 19
-149 36 -191 13 -32 14 -15 1 28 -7 27 -7 32 4 23 7 -6 15 -10 17 -8 2 1 3 0
2 -2 -2 -2 9 -20 23 -38 25 -34 26 -35 7 -55 l-18 -22 24 17 c23 15 26 15 43
0 23 -20 23 -37 1 -29 -10 4 -14 4 -10 0 4 -4 -2 -13 -13 -21 -11 -8 -20 -19
-20 -25 0 -7 5 -6 14 1 10 8 16 9 21 1 3 -5 0 -10 -7 -10 -10 0 -10 -2 0 -9 8
-4 13 -11 12 -15 -1 -4 1 -12 3 -19 3 -7 6 -4 6 6 1 10 16 31 33 48 33 30 55
39 42 17 -4 -7 2 -5 13 5 20 18 49 23 56 10 3 -5 1 -19 -4 -32 -7 -17 -15 -22
-30 -18 -17 4 -19 2 -13 -16 8 -29 52 -104 64 -112 6 -4 8 -11 5 -16 -4 -5 15
-9 42 -9 57 0 113 27 125 60 l9 24 -24 -22 c-32 -31 -79 -43 -120 -31 -40 11
-72 42 -61 60 5 8 3 10 -6 4 -9 -6 -11 -4 -5 4 5 9 10 10 18 2 18 -18 29 -13
17 8 -17 32 12 32 43 0 15 -16 31 -29 36 -29 26 0 45 17 62 54 15 33 19 36 19
17 0 -21 2 -22 17 -10 15 13 16 12 11 -8 -4 -13 -2 -23 2 -23 11 0 24 96 14
111 -5 8 -3 9 6 4 8 -5 11 -24 7 -58 -4 -44 -3 -47 8 -27 9 16 14 19 17 9 3
-8 10 10 17 39 12 49 9 158 -5 195 -3 8 -1 18 5 22 6 3 11 14 10 23 0 14 -2
14 -10 -3 -7 -15 -8 -11 -4 16 3 19 2 38 -1 42 -4 4 -9 28 -10 54 -2 27 -6 62
-9 79 -5 29 -4 30 30 26 25 -3 42 1 55 13 11 10 28 15 40 12 11 -3 18 -2 15 3
-3 4 4 10 15 13 11 3 18 1 14 -4 -3 -5 0 -9 6 -9 12 0 38 -55 50 -105 7 -25 8
-26 9 -7 1 13 -3 32 -9 42 -7 13 -6 21 4 30 12 9 13 7 9 -11 -5 -18 -3 -20 17
-14 14 5 20 3 16 -3 -3 -6 0 -12 6 -15 10 -3 12 -41 11 -155 -2 -115 0 -152
10 -152 9 0 9 -2 -1 -8 -10 -7 -10 -14 1 -36 13 -24 15 -25 19 -8 3 11 6 55 7
98 2 99 3 104 10 99 4 -2 6 -27 4 -56 -1 -30 4 -60 10 -68 10 -12 9 -13 -3 -6
-12 7 -12 4 2 -17 10 -15 14 -35 11 -49 -3 -13 -2 -20 2 -16 14 12 15 40 3 54
-7 9 -7 13 1 13 7 0 9 5 6 10 -3 6 -2 10 3 10 6 0 9 -27 9 -60 -1 -33 -5 -60
-9 -60 -5 0 -8 5 -8 12 0 6 -3 8 -7 5 -3 -4 2 -16 12 -27 14 -15 15 -20 4 -20
-11 0 -11 -2 -1 -9 10 -6 11 -24 6 -72 -3 -35 -8 -66 -11 -69 -7 -8 -22 23
-16 34 3 5 1 6 -4 3 -11 -7 -37 64 -52 143 -5 28 -9 35 -10 20 -1 -35 27 -140
45 -168 8 -12 12 -27 9 -31 -3 -5 2 -17 11 -25 14 -15 14 -17 -1 -22 -9 -4
-12 -9 -7 -13 7 -4 3 -43 -11 -109 -19 -91 -20 -110 -9 -184 6 -45 16 -86 20
-90 5 -5 6 11 2 37 -4 25 -3 48 2 51 4 3 8 15 8 27 0 15 3 18 11 10 6 -6 9
-36 7 -71 -2 -38 1 -57 6 -52 12 12 13 57 4 130 -4 30 -4 44 0 30 9 -30 20
-16 17 22 -1 15 2 25 6 22 4 -2 10 0 14 6 3 5 1 10 -4 10 -6 0 -11 7 -11 16 0
8 4 13 8 10 5 -3 9 1 9 9 0 8 -4 12 -9 9 -13 -8 -9 41 5 55 10 11 9 12 -1 6
-11 -6 -11 -3 0 16 7 13 18 27 23 31 6 5 6 8 -1 8 -16 0 -25 38 -12 47 6 3 16
-1 23 -10 19 -26 24 -20 20 23 -4 38 7 61 20 40 3 -5 1 -10 -4 -10 -6 0 -11
-4 -11 -10 0 -5 5 -9 11 -7 17 3 85 -156 102 -238 11 -52 16 -61 16 -35 1 38
-17 123 -48 233 -18 66 -18 69 -1 64 13 -3 17 0 13 9 -3 8 -10 11 -16 7 -6 -4
-7 -1 -2 7 5 9 2 10 -13 6 -13 -4 -22 -1 -25 8 -4 11 -1 13 11 9 14 -6 15 -4
5 8 -10 12 -8 15 6 15 11 0 17 -6 14 -13 -3 -7 1 -15 10 -18 8 -4 20 -24 27
-46 8 -22 22 -45 31 -50 18 -9 59 -122 59 -162 0 -32 7 -16 14 33 4 27 3 40
-2 32 -7 -10 -11 -8 -15 9 -4 13 -4 25 -2 28 3 2 5 -1 5 -7 0 -7 4 -12 9 -12
15 0 -1 49 -18 53 -9 3 -3 5 12 6 16 0 26 5 22 11 -3 5 -12 7 -19 4 -8 -3 -16
-1 -19 3 -3 5 7 10 23 11 24 2 33 -5 55 -40 17 -27 24 -34 19 -18 -6 23 -6 24
12 10 10 -8 1 5 -20 28 -22 22 -44 38 -49 35 -6 -3 -7 -1 -3 5 3 6 -13 27 -37
46 -43 35 -76 48 -61 24 5 -7 3 -8 -5 -4 -7 5 -10 10 -7 13 2 3 -29 34 -69 69
-89 77 -114 117 -133 203 -17 85 -23 153 -11 145 5 -3 7 -9 4 -14 -7 -11 36
-56 48 -52 4 1 7 -3 6 -10 -3 -18 11 -48 23 -48 5 0 7 4 4 8 -3 5 1 9 9 9 12
0 12 -4 -2 -20 -18 -19 -17 -20 7 -7 l25 13 -20 -23 -20 -23 23 12 c17 9 21
18 17 39 -18 87 -18 95 -4 87 8 -5 10 -4 6 0 -4 5 -21 10 -38 11 -41 3 -59 20
-60 58 0 21 -2 26 -7 14 -5 -13 -15 -1 -41 50 -38 73 -66 114 -73 107 -3 -3
-5 2 -6 10 -1 8 -3 22 -4 30 -1 8 -4 13 -7 11 -3 -2 -14 4 -24 14 -17 17 -17
19 14 41 23 16 31 18 27 8 -4 -9 -1 -16 7 -16 7 0 11 6 8 12 -6 17 30 25 50
10 9 -7 23 -27 31 -46 9 -19 15 -30 16 -25 0 5 6 4 13 -1 15 -12 47 -24 47
-17 0 2 -11 9 -26 14 -14 6 -29 22 -35 37 -10 30 -58 67 -99 77 l-25 7 25 -15
c23 -14 16 -22 -14 -17 -5 1 -46 -36 -91 -82 -133 -137 -147 -141 -228 -62
-25 26 -51 44 -57 40 -5 -3 -7 0 -4 9 3 8 -8 28 -27 48 -17 18 -25 24 -18 13
13 -18 13 -19 -3 -6 -10 7 -16 17 -13 21 3 5 -6 22 -20 38 -13 16 -22 32 -19
34 3 3 -6 8 -20 10 -14 3 -23 1 -20 -3z m432 -181 c-2 -7 3 -12 10 -10 8 1 11
-2 7 -8 -5 -8 -11 -8 -21 1 -7 6 -11 15 -8 20 8 13 14 11 12 -3z m-28 -11 c0
-2 -10 -12 -22 -23 l-23 -19 19 23 c18 21 26 27 26 19z m-191 -57 c0 -9 -6 -4
-14 10 -19 33 -19 49 0 24 8 -10 14 -26 14 -34z m332 3 c13 -16 12 -17 -3 -4
-17 13 -22 21 -14 21 2 0 10 -8 17 -17z m-797 -119 c3 -8 2 -12 -4 -9 -6 3
-10 10 -10 16 0 14 7 11 14 -7z m876 -224 c0 -5 -5 -10 -11 -10 -5 0 -7 5 -4
10 3 6 8 10 11 10 2 0 4 -4 4 -10z m-440 -106 c0 -8 -4 -12 -10 -9 -5 3 -10
10 -10 16 0 5 5 9 10 9 6 0 10 -7 10 -16z m-734 -191 c-10 -10 -19 5 -10 18 6
11 8 11 12 0 2 -7 1 -15 -2 -18z m1423 -7 c-3 -3 -11 5 -18 17 -13 21 -12 21
5 5 10 -10 16 -20 13 -22z m46 5 c3 -5 0 -13 -6 -17 -7 -4 -9 -3 -5 4 3 5 0
13 -6 15 -9 4 -10 6 -1 6 6 1 14 -3 18 -8z"/>
<path d="M2938 3883 c6 -2 18 -2 25 0 6 3 1 5 -13 5 -14 0 -19 -2 -12 -5z"/>
<path d="M2315 3820 c-11 -5 -16 -9 -11 -9 5 -1 1 -10 -9 -21 -10 -11 -16 -22
-14 -24 2 -1 17 12 32 31 16 18 27 33 25 32 -1 0 -12 -4 -23 -9z"/>
<path d="M2065 3794 c-16 -8 -34 -20 -40 -26 -5 -7 2 -4 17 5 15 10 45 21 65
26 29 7 32 9 13 10 -14 0 -38 -6 -55 -15z"/>
<path d="M3460 3799 c0 -5 -5 -7 -12 -3 -7 4 -8 3 -4 -4 4 -6 13 -9 21 -6 8 4
12 10 9 15 -7 12 -14 11 -14 -2z"/>
<path d="M3465 3770 c-3 -5 -1 -10 4 -10 6 0 11 5 11 10 0 6 -2 10 -4 10 -3 0
-8 -4 -11 -10z"/>
<path d="M4448 3743 c7 -3 16 -2 19 1 4 3 -2 6 -13 5 -11 0 -14 -3 -6 -6z"/>
<path d="M4501 3726 c10 -9 69 -36 69 -32 0 6 -55 36 -66 36 -4 0 -5 -2 -3 -4z"/>
<path d="M2959 3693 c-13 -16 -12 -17 4 -4 9 7 17 15 17 17 0 8 -8 3 -21 -13z"/>
<path d="M2660 3645 c0 -2 9 -19 21 -37 12 -18 18 -24 14 -13 -4 11 -10 28
-12 38 -5 15 -23 25 -23 12z"/>
<path d="M3986 3566 c2 -61 0 -85 -8 -80 -7 4 -8 3 -4 -4 9 -15 -53 -94 -67
-85 -6 3 -7 1 -3 -6 5 -7 -16 -35 -50 -71 -41 -43 -60 -57 -66 -48 -5 9 -8 6
-8 -9 0 -25 27 -54 94 -101 26 -18 44 -37 41 -42 -3 -6 1 -10 9 -10 26 0 18
-39 -14 -72 -20 -20 -36 -28 -47 -23 -13 4 -11 -1 6 -19 25 -27 42 -36 22 -13
-8 10 -2 21 24 47 19 19 35 43 35 54 1 12 26 48 57 81 30 33 87 96 125 140 39
44 86 95 106 114 33 30 34 31 6 13 -17 -12 -36 -28 -43 -36 -12 -14 -17 -13
-52 4 -44 23 -68 27 -26 4 15 -8 27 -19 27 -23 0 -24 -187 -100 -283 -116
l-32 -6 50 49 c52 50 149 121 169 123 6 1 18 1 26 0 8 -1 -4 10 -27 24 -41 25
-41 26 -48 99 -10 105 -23 113 -19 12z"/>
<path d="M1790 3600 c-19 -16 -30 -30 -24 -30 5 0 23 14 39 30 36 38 30 38
-15 0z"/>
<path d="M3844 3572 l39 -41 -29 1 c-35 0 -96 -11 -104 -19 -3 -3 12 -3 32 0
27 4 38 2 42 -10 9 -23 7 -26 -9 -13 -12 10 -16 9 -21 -5 -6 -13 -9 -14 -16
-3 -6 9 -7 5 -3 -11 6 -19 4 -23 -9 -18 -8 3 -18 2 -22 -4 -4 -7 6 -9 27 -6
29 3 34 7 32 28 l-3 24 21 -25 c11 -14 19 -18 16 -10 -2 8 0 23 5 34 8 14 7
17 -4 11 -7 -5 -10 -4 -5 1 12 12 50 12 59 -1 4 -5 9 -7 12 -4 8 8 -33 61 -68
88 -26 21 -25 18 8 -17z"/>
<path d="M3225 3560 c-3 -6 1 -7 9 -4 18 7 21 14 7 14 -6 0 -13 -4 -16 -10z"/>
<path d="M3241 3534 c0 -11 3 -14 6 -6 3 7 2 16 -1 19 -3 4 -6 -2 -5 -13z"/>
<path d="M2904 3518 c3 -9 0 -19 -7 -22 -7 -3 -6 -5 3 -5 9 -1 22 -17 29 -37
7 -19 15 -33 17 -31 3 2 -7 29 -21 58 -14 30 -23 46 -21 37z"/>
<path d="M2736 3505 c4 -8 11 -15 16 -15 6 0 5 6 -2 15 -7 8 -14 15 -16 15 -2
0 -1 -7 2 -15z"/>
<path d="M3233 3450 c0 -30 2 -43 4 -27 2 15 2 39 0 55 -2 15 -4 2 -4 -28z"/>
<path d="M3663 3483 c0 -9 4 -10 11 -3 6 6 16 4 30 -8 21 -17 21 -17 3 4 -19
23 -44 27 -44 7z"/>
<path d="M3855 3491 c-3 -5 0 -13 6 -17 8 -5 9 -3 4 6 -6 10 -4 12 9 7 10 -4
15 -3 11 3 -8 13 -22 13 -30 1z"/>
<path d="M1773 3483 c16 -4 16 -6 -2 -31 -36 -52 -52 -94 -83 -215 -34 -135
-46 -153 -110 -163 -24 -4 -35 -10 -27 -14 6 -4 25 -4 41 0 18 6 26 5 22 -1
-3 -5 -7 -24 -9 -42 -2 -18 -6 -41 -9 -52 -25 -105 -25 -111 -10 -91 8 11 14
26 14 33 0 7 5 13 11 13 5 0 7 5 3 12 -4 7 -3 8 4 4 14 -9 -21 -82 -67 -140
-17 -21 -31 -42 -31 -45 0 -8 45 47 71 87 11 17 22 32 24 32 4 0 4 0 -15 -103
-20 -111 -5 -86 19 31 12 59 26 121 31 137 4 17 11 43 14 58 12 54 27 16 22
-56 -3 -40 -1 -90 3 -112 l9 -40 1 38 c0 20 5 37 9 37 4 0 8 9 8 20 0 11 -3
20 -6 20 -4 0 -7 6 -7 14 0 8 6 12 14 9 11 -4 13 1 8 23 -5 28 -5 28 5 5 6
-14 9 -30 6 -38 -3 -7 -1 -15 3 -18 11 -6 22 -108 22 -200 0 -38 3 -80 6 -92
5 -22 5 -22 51 9 25 18 62 37 82 44 32 12 33 13 8 14 -15 0 -30 -5 -34 -11 -5
-8 -10 -6 -16 5 -5 9 -13 14 -19 11 -5 -4 -6 2 -2 11 5 13 3 15 -7 9 -9 -5
-11 -4 -6 4 4 6 3 17 -2 24 -16 20 -62 156 -83 247 -24 103 -25 264 -1 255 10
-3 12 0 8 10 -3 8 -1 15 4 15 6 0 10 6 10 13 0 7 13 23 29 35 l29 21 7 -72
c16 -162 73 -347 151 -483 24 -42 41 -81 38 -86 -3 -4 -2 -8 3 -7 26 4 43 -3
43 -19 0 -19 39 -62 55 -62 5 0 1 6 -9 13 -17 12 -15 13 15 11 60 -4 94 -19
91 -40 -2 -14 -1 -16 6 -5 15 21 46 5 79 -42 37 -52 73 -121 73 -141 0 -9 10
-20 23 -27 12 -6 30 -21 40 -33 18 -21 18 -20 2 9 -8 17 -33 55 -54 85 -22 30
-38 57 -35 59 2 2 -4 13 -13 24 -10 11 -12 17 -5 13 6 -4 12 -3 12 1 0 5 -6
15 -12 22 -11 11 -10 13 2 6 8 -4 2 4 -14 17 -18 15 -25 27 -18 31 6 4 16 2
24 -5 7 -7 22 -14 33 -16 11 -2 0 9 -24 23 -49 28 -55 30 -45 13 4 -8 3 -10
-2 -5 -14 13 -11 31 6 39 9 4 3 7 -18 7 -18 1 -60 12 -94 26 -47 19 -64 22
-69 13 -5 -8 0 -22 12 -34 18 -19 18 -22 4 -28 -10 -3 -13 -2 -10 4 4 6 1 9
-6 8 -7 -2 -13 2 -14 9 0 6 -4 15 -9 20 -5 5 -6 3 -2 -4 4 -7 2 -13 -3 -13 -6
0 -11 6 -11 14 0 7 -9 16 -21 19 -12 3 -18 10 -15 15 3 6 -4 23 -17 39 -40 49
-69 102 -61 114 5 8 3 9 -6 4 -10 -6 -12 -4 -7 9 4 9 3 15 -2 12 -10 -7 -43
79 -34 88 3 3 1 11 -5 19 -14 17 -27 97 -16 97 9 0 85 -211 87 -242 1 -9 3
-15 5 -13 3 2 26 -27 53 -65 27 -37 53 -71 58 -74 18 -11 20 24 2 36 -10 7
-35 40 -57 73 -21 33 -43 63 -49 67 -5 4 -6 10 -2 14 4 4 2 13 -4 20 -7 8 -7
14 1 19 5 3 13 -1 16 -9 3 -8 31 -34 62 -58 31 -24 79 -65 106 -91 28 -27 60
-53 71 -59 11 -5 5 2 -13 17 -23 19 -31 33 -27 45 4 13 -1 20 -16 25 -64 21
-176 112 -205 168 -9 16 -20 25 -26 21 -6 -4 -8 -3 -5 4 4 5 -2 32 -14 59 -30
69 -59 207 -59 284 0 64 1 68 34 93 43 33 46 28 61 -88 16 -119 45 -247 55
-241 5 3 6 -5 2 -17 -3 -14 -1 -19 6 -14 7 4 10 2 6 -7 -9 -25 36 -125 78
-169 22 -24 37 -36 32 -28 -19 33 -13 40 19 24 l32 -16 -28 29 c-18 20 -28 42
-30 68 -1 22 -9 47 -17 57 -14 17 -15 17 -26 -5 l-12 -22 -11 26 c-5 15 -13
43 -16 62 -11 59 -51 158 -60 150 -4 -5 -5 -2 -1 5 4 7 0 41 -8 76 -20 76 -19
159 0 152 7 -3 15 -2 18 2 3 4 -9 9 -25 10 -20 2 -29 -2 -29 -13 0 -8 -3 -14
-7 -14 -5 1 -12 0 -18 -1 -5 -1 -17 -3 -25 -4 -8 0 -13 -8 -12 -16 2 -8 0 -11
-4 -7 -13 12 -13 37 -1 37 7 0 6 5 -3 11 -12 8 -12 10 5 8 44 -3 47 4 5 12
-47 8 -148 10 -117 2z m-124 -506 c-2 -1 -13 -9 -24 -17 -19 -14 -19 -14 -6 3
7 9 18 17 24 17 6 0 8 -1 6 -3z m316 -27 c3 -5 1 -10 -4 -10 -6 0 -11 5 -11
10 0 6 2 10 4 10 3 0 8 -4 11 -10z m15 -24 c0 -11 -19 -15 -25 -6 -3 5 1 10 9
10 9 0 16 -2 16 -4z m259 -316 c13 -18 20 -31 15 -28 -5 2 -22 10 -39 17 -16
7 -37 17 -45 21 -14 7 -20 27 -13 42 7 14 57 -19 82 -52z m-424 21 c3 -5 2
-12 -3 -15 -5 -3 -9 1 -9 9 0 17 3 19 12 6z"/>
<path d="M2163 2645 c0 -8 4 -12 9 -9 5 3 6 10 3 15 -9 13 -12 11 -12 -6z"/>
<path d="M1666 3425 c-3 -9 -6 -26 -5 -38 1 -14 4 -9 9 13 9 37 7 52 -4 25z"/>
<path d="M2102 3350 c0 -14 2 -19 5 -12 2 6 2 18 0 25 -3 6 -5 1 -5 -13z"/>
<path d="M1203 3345 c0 -8 4 -12 9 -9 5 3 6 10 3 15 -9 13 -12 11 -12 -6z"/>
<path d="M1230 3350 c0 -6 7 -10 15 -10 8 0 15 2 15 4 0 2 -7 6 -15 10 -8 3
-15 1 -15 -4z"/>
<path d="M1661 3344 c0 -11 3 -14 6 -6 3 7 2 16 -1 19 -3 4 -6 -2 -5 -13z"/>
<path d="M3795 3349 c-4 -6 -5 -12 -2 -15 2 -3 7 2 10 11 7 17 1 20 -8 4z"/>
<path d="M2773 3324 c21 -23 25 -33 15 -37 -8 -3 -5 -6 8 -6 11 -1 25 -6 32
-13 7 -7 12 -10 12 -7 0 3 -21 25 -47 49 -26 25 -35 31 -20 14z"/>
<path d="M1249 3313 c-10 -11 -10 -14 -1 -9 11 6 17 -5 13 -26 0 -5 6 -8 14
-8 19 0 19 14 0 30 -8 7 -12 16 -9 21 9 16 -3 10 -17 -8z"/>
<path d="M3781 3304 c0 -11 3 -14 6 -6 3 7 2 16 -1 19 -3 4 -6 -2 -5 -13z"/>
<path d="M3630 3303 c0 -6 5 -15 10 -18 6 -3 10 -11 10 -17 0 -6 -7 -5 -17 3
-10 8 11 -21 45 -63 35 -43 65 -78 68 -78 3 0 -13 26 -34 58 -22 31 -49 73
-61 92 -11 19 -21 30 -21 23z"/>
<path d="M2838 3293 c6 -2 18 -2 25 0 6 3 1 5 -13 5 -14 0 -19 -2 -12 -5z"/>
<path d="M4502 3166 c-35 -47 -98 -127 -141 -178 -81 -96 -517 -530 -657 -653
-43 -38 -99 -89 -123 -112 -40 -40 -44 -42 -57 -26 -13 17 -14 17 -8 0 4 -12
2 -17 -7 -15 -8 2 -17 14 -21 28 -4 15 -6 6 -3 -23 5 -51 53 -162 92 -214 14
-18 21 -33 15 -33 -6 0 -19 11 -30 25 -11 13 -23 21 -28 17 -5 -4 -6 -3 -3 1
7 9 -44 67 -59 67 -6 0 -14 5 -18 12 -5 7 -3 8 7 2 15 -9 -8 19 -87 105 -103
114 -145 155 -135 134 7 -14 8 -24 1 -28 -6 -4 -5 -11 3 -19 6 -8 15 -12 20
-9 4 2 7 -4 7 -14 0 -11 15 -34 33 -54 17 -19 40 -45 49 -59 12 -17 16 -19 11
-6 -4 13 -3 17 5 12 7 -4 12 -15 12 -25 0 -21 33 -54 44 -44 4 5 6 4 4 -2 -3
-10 47 -83 66 -97 6 -4 14 -4 20 -1 5 3 7 2 4 -3 -3 -5 4 -18 15 -29 11 -11
16 -14 12 -6 -5 9 -4 12 3 7 7 -4 12 -13 12 -19 0 -14 35 -47 49 -47 4 0 16
-9 26 -20 10 -11 22 -17 28 -13 6 3 7 1 3 -5 -4 -7 -3 -12 2 -12 4 0 16 -16
25 -36 10 -19 14 -33 9 -30 -4 2 -8 -4 -8 -14 0 -11 5 -16 15 -12 9 3 12 1 7
-6 -8 -13 3 -64 13 -57 11 6 31 -57 26 -83 -2 -15 4 -28 22 -42 14 -11 20 -20
13 -20 -7 0 -10 -8 -7 -20 3 -11 1 -23 -4 -26 -5 -3 -9 -10 -9 -15 0 -6 4 -8
8 -5 4 2 7 -8 6 -22 -1 -37 25 -114 44 -129 9 -8 11 -13 4 -13 -6 0 -9 -7 -6
-15 4 -8 1 -15 -5 -15 -18 0 -30 -42 -19 -63 8 -15 5 -20 -11 -24 -11 -3 -18
-10 -14 -16 3 -5 2 -7 -3 -4 -15 9 -27 -4 -48 -48 -22 -44 -23 -48 -25 -71 0
-8 -6 -12 -12 -9 -17 11 -61 -4 -56 -19 8 -20 -4 -28 -20 -15 -7 6 -22 9 -33
6 -11 -3 -20 0 -20 6 0 7 -5 5 -10 -3 -5 -8 -10 -10 -10 -5 0 6 -8 1 -17 -10
-15 -19 -15 -19 -8 10 12 47 15 146 6 163 -5 9 -10 -14 -13 -62 -3 -43 -10
-82 -17 -89 -8 -8 -11 -7 -11 6 0 9 -10 26 -23 39 -12 13 -22 33 -21 45 1 13
-3 23 -7 23 -5 0 -9 6 -9 14 0 7 -7 19 -15 26 -8 7 -12 16 -9 21 3 5 -2 32
-11 59 -17 52 -61 105 -111 134 -17 10 -34 28 -40 40 -5 11 -17 20 -26 20 -10
-1 -17 1 -16 5 1 3 -6 23 -15 43 -16 37 -34 60 -71 88 -18 13 -19 13 -12 0 4
-8 0 -6 -8 4 -9 11 -16 16 -16 10 0 -5 -18 11 -41 36 -22 25 -38 39 -34 33 3
-7 3 -13 -2 -13 -11 0 -143 195 -143 212 0 8 -4 18 -9 23 -10 11 -61 102 -62
110 0 2 -8 25 -19 51 -11 25 -20 48 -20 52 0 3 -8 14 -17 25 -13 15 -14 18 -3
12 12 -6 13 -5 3 6 -7 7 -13 21 -13 30 0 9 -7 22 -15 29 -8 6 -14 15 -13 18 3
11 -38 72 -44 66 -4 -3 -9 4 -13 15 -3 12 -10 19 -14 17 -4 -3 -8 1 -8 9 0 8
6 16 14 19 17 7 16 30 -5 92 l-18 51 44 -19 c38 -17 48 -18 75 -7 54 21 170
106 248 180 l74 71 -70 -62 c-84 -74 -207 -157 -255 -171 -31 -9 -46 -7 -114
21 -43 17 -81 29 -83 26 -3 -3 -12 2 -20 10 -8 8 -19 12 -24 9 -5 -4 -9 -1 -9
4 0 6 -4 11 -9 11 -6 0 -1 -20 9 -44 19 -42 53 -159 53 -183 0 -7 4 -10 8 -7
17 10 91 -48 97 -76 2 -8 12 -24 22 -35 10 -11 21 -34 24 -50 3 -17 15 -48 26
-70 11 -21 20 -45 20 -52 0 -6 6 -16 14 -20 14 -8 16 -12 16 -34 0 -5 5 -7 12
-3 8 5 9 2 5 -9 -3 -10 -2 -17 4 -17 6 0 8 -4 5 -8 -3 -5 4 -21 15 -38 10 -16
19 -36 19 -44 0 -9 12 -33 27 -55 15 -22 28 -46 29 -53 1 -7 14 -28 28 -46 14
-19 22 -36 19 -40 -4 -3 -2 -6 4 -6 17 0 30 -43 29 -97 -1 -31 3 -49 9 -45 6
3 5 -1 -1 -9 -6 -8 -10 -22 -9 -32 2 -9 -1 -15 -6 -11 -5 3 -9 -11 -9 -30 0
-22 5 -36 13 -36 6 0 4 -5 -6 -11 -9 -5 -24 -24 -33 -41 -12 -22 -12 -28 -2
-22 10 6 11 5 1 -8 -7 -8 -11 -18 -8 -21 3 -4 2 -5 -2 -2 -3 3 -16 -3 -27 -12
-20 -17 -20 -17 -7 0 12 15 12 17 -1 12 -8 -3 -21 -17 -28 -31 -7 -13 -15 -22
-18 -19 -6 5 -36 -34 -45 -58 -5 -13 -3 -16 6 -11 8 5 8 2 -2 -9 -7 -9 -11
-24 -7 -32 3 -10 2 -13 -5 -10 -6 4 -7 -3 -3 -19 5 -20 2 -26 -10 -26 -9 0
-26 -9 -38 -20 -12 -11 -30 -21 -40 -21 -10 -1 -22 -3 -28 -4 -5 -1 -15 -3
-22 -4 -6 0 -9 -4 -5 -7 3 -3 -3 -16 -14 -27 -25 -27 -32 -19 -70 74 -18 45
-27 60 -23 39 3 -19 20 -65 38 -102 24 -51 27 -63 13 -50 -25 22 -222 422
-327 666 -39 88 -47 100 -81 115 l-38 17 52 32 c55 34 57 43 4 16 -32 -16
-159 -128 -312 -275 -224 -213 -447 -415 -540 -485 -77 -59 -184 -116 -302
-160 -65 -24 -122 -44 -126 -44 -11 0 -47 80 -47 107 0 15 -5 20 -17 17 -20
-6 -122 64 -123 84 0 6 -4 12 -10 12 -14 0 -12 20 5 54 8 15 15 36 15 45 1 9
17 34 36 56 l35 40 -6 -44 c-5 -37 0 -59 32 -135 l38 -90 8 49 c5 33 5 51 -2
53 -13 4 -15 69 -2 77 5 3 12 -9 14 -27 3 -27 4 -24 5 13 1 25 7 71 13 103 6
32 8 60 5 63 -2 3 -8 -17 -11 -44 -4 -26 -15 -57 -25 -68 -10 -11 -21 -30 -25
-42 -12 -43 -25 -23 -25 39 0 59 1 62 41 99 23 21 45 36 49 34 4 -3 15 17 25
43 10 26 31 73 46 104 l29 57 -38 -2 c-32 -2 -37 1 -40 21 -2 14 -10 22 -22
22 -18 0 -18 3 -6 45 8 25 10 42 5 39 -5 -3 -9 -11 -9 -18 0 -15 -42 -56 -57
-56 -5 0 -18 -9 -28 -20 -28 -31 -87 -46 -124 -30 -36 15 -45 37 -36 90 6 33
4 40 -9 40 -20 0 -52 -51 -61 -97 -6 -31 -9 -35 -34 -31 -20 3 -27 0 -27 -13
0 -10 3 -16 7 -13 15 9 15 -32 1 -48 -14 -16 -13 -18 2 -18 10 0 14 -5 10 -12
-5 -7 -3 -8 5 -4 7 5 10 15 7 23 -3 8 -2 11 3 8 14 -8 7 -48 -12 -75 -15 -21
-15 -26 -2 -40 19 -21 20 -36 1 -21 -11 9 -16 9 -22 0 -4 -7 -3 -9 4 -5 6 3
14 2 17 -4 5 -8 11 -7 21 1 11 9 18 8 32 -2 11 -8 9 -4 -4 11 -17 19 -20 30
-13 48 10 27 13 27 35 5 15 -15 17 -15 12 -2 -7 19 4 40 23 42 8 2 20 6 27 10
18 12 16 6 -38 -102 -61 -121 -89 -192 -92 -228 -2 -28 16 -72 34 -84 6 -4 5
-21 -1 -45 -6 -21 -13 -81 -15 -131 -6 -118 1 -125 91 -77 35 18 63 31 63 27
0 -3 7 0 15 7 9 7 18 10 22 6 3 -3 1 -6 -6 -6 -7 0 -10 -3 -7 -8 2 -4 -3 -23
-11 -42 -9 -19 -15 -39 -14 -43 1 -5 -3 -6 -8 -3 -5 4 -12 0 -15 -6 -3 -7 -4
-2 -1 12 5 24 4 24 -8 -3 -7 -15 -16 -25 -19 -22 -3 3 -3 -6 0 -20 3 -16 -2
-33 -12 -44 -9 -10 -13 -21 -9 -26 5 -4 2 -5 -4 -1 -8 4 -13 2 -13 -6 0 -10
-3 -9 -11 2 -9 12 -12 12 -16 2 -4 -10 -11 -5 -24 14 l-19 29 3 -33 c1 -17 7
-32 12 -32 6 0 2 -5 -8 -11 -14 -8 -22 -8 -30 1 -9 8 -8 10 3 5 11 -4 16 1 17
16 1 14 -3 19 -12 16 -7 -3 -21 1 -32 8 -10 9 -13 14 -5 15 6 0 12 5 12 10 0
7 -7 7 -20 0 -11 -6 -18 -14 -16 -18 3 -5 1 -14 -5 -22 -5 -10 -9 -11 -9 -3 0
8 -7 10 -17 6 -16 -6 -17 -5 -3 13 14 17 14 18 -2 6 -9 -8 -14 -20 -11 -28 4
-10 0 -12 -13 -7 -13 5 -15 3 -9 -7 6 -10 4 -12 -11 -6 -10 4 -15 4 -11 0 7
-7 -30 -44 -44 -44 -4 0 -7 -13 -7 -30 1 -26 15 -38 32 -27 2 1 13 -6 23 -16
11 -9 22 -16 24 -15 2 2 0 -1 -6 -7 -6 -5 -10 -17 -10 -25 0 -8 -4 -18 -10
-22 -16 -11 -15 -47 1 -41 15 5 19 -9 7 -21 -14 -14 -11 -35 5 -29 11 5 13 3
7 -7 -5 -9 -4 -11 4 -6 6 4 20 2 29 -5 12 -10 11 -7 -3 10 -21 26 -6 21 29 -8
16 -13 18 -13 12 -1 -4 8 1 5 11 -8 14 -17 21 -20 30 -11 6 6 9 17 7 24 -3 8
2 12 13 12 11 -1 18 4 17 14 -1 9 4 16 11 16 8 0 11 -7 7 -15 -3 -10 -1 -13 6
-8 8 5 11 -1 10 -18 -1 -15 -7 -26 -12 -26 -5 0 -1 -9 9 -20 10 -11 22 -17 27
-14 4 3 7 2 6 -3 -5 -13 28 -53 37 -45 5 4 5 2 1 -5 -11 -19 28 -51 76 -63 24
-5 56 -17 71 -25 15 -8 25 -10 22 -5 -9 14 7 12 48 -5 20 -8 49 -15 65 -15 16
0 37 -9 47 -20 17 -18 31 -20 169 -20 112 0 157 4 171 14 11 7 53 25 93 40 90
32 106 40 157 80 32 25 38 27 31 11 -4 -11 -12 -42 -19 -68 -8 -36 -17 -51
-34 -58 -31 -12 -29 -19 6 -16 16 1 28 4 25 6 -2 2 75 43 170 90 149 75 295
132 399 157 15 3 26 8 24 11 -5 4 -53 -6 -155 -35 l-73 -21 33 32 c22 22 44
33 68 35 76 5 199 24 280 43 86 19 258 72 295 89 26 13 186 70 194 70 3 0 -1
-5 -9 -10 -15 -10 -37 -18 -405 -160 -115 -45 -241 -94 -280 -110 -38 -16
-149 -56 -245 -90 -96 -33 -182 -65 -190 -69 -9 -5 -30 -12 -48 -15 -73 -17
-32 -25 129 -25 181 -1 209 4 352 68 102 45 350 134 282 101 -11 -5 -85 -37
-165 -71 -80 -34 -150 -66 -157 -71 -7 -5 -17 -7 -23 -3 -5 3 -10 1 -10 -5 0
-6 -4 -9 -9 -5 -5 3 -12 1 -16 -5 -9 -15 20 -12 61 5 20 8 41 12 47 8 5 -3 7
-1 4 4 -4 6 8 16 26 23 17 7 61 26 97 42 36 16 73 30 82 31 9 1 15 3 12 6 -7
8 109 52 123 47 19 -8 9 -50 -12 -54 -12 -3 -15 0 -10 9 5 7 4 10 -3 5 -6 -4
-9 -12 -6 -19 5 -15 -122 -81 -138 -71 -7 4 -8 2 -4 -4 4 -7 1 -12 -6 -12 -8
0 -23 -6 -34 -14 -17 -13 -11 -15 63 -15 46 0 85 4 88 10 4 5 11 9 16 9 6 0 7
-4 4 -10 -4 -6 20 -10 64 -10 59 0 74 3 93 23 13 12 30 22 38 22 8 0 20 11 26
23 8 17 13 20 18 10 3 -7 4 -3 2 9 -3 16 0 20 12 16 10 -4 13 -2 8 5 -4 7 -3
12 3 12 6 0 21 10 34 23 14 12 35 30 48 40 13 10 17 15 9 12 -10 -5 -10 -2 2
8 12 9 14 17 8 25 -6 7 -7 10 -4 7 4 -3 15 5 25 17 17 19 24 17 20 -6 -1 -5 8
-2 21 7 13 8 22 20 20 26 -1 6 3 11 9 11 5 0 7 5 4 10 -4 7 3 9 19 6 15 -3 24
-1 21 4 -3 5 4 11 15 15 17 6 25 23 21 48 0 4 4 7 10 7 5 0 8 3 6 8 -3 4 5 7
18 7 13 0 21 -3 18 -7 -7 -13 7 -9 21 5 22 21 38 58 32 73 -3 7 -2 13 2 13 17
-2 51 14 46 22 -3 5 -1 9 5 9 16 0 56 43 56 60 0 8 11 17 25 18 24 4 63 35 54
44 -2 3 5 13 16 23 11 10 20 14 20 10 0 -4 10 0 22 11 15 12 18 13 10 3 -7 -9
-27 -51 -46 -93 -18 -42 -36 -73 -39 -69 -4 3 -8 -1 -8 -10 -2 -18 -5 -34 -9
-42 -3 -6 -4 -9 -14 -55 -4 -19 -10 -43 -12 -52 -3 -10 3 -21 16 -28 27 -15
42 -3 72 56 12 24 25 44 30 44 4 0 7 3 6 8 -1 4 8 27 19 52 12 25 35 79 52
120 17 41 31 70 31 65 0 -16 -39 -155 -61 -213 -10 -30 -17 -58 -13 -63 3 -5
0 -8 -7 -7 -13 3 -99 -182 -140 -302 -12 -36 -24 -71 -27 -77 -2 -8 4 -13 17
-13 15 0 21 6 21 23 0 13 6 29 13 36 10 11 9 12 -2 6 -9 -5 -8 0 3 17 9 14 13
27 10 31 -4 3 3 26 15 50 12 25 23 54 26 65 2 11 13 38 24 61 12 22 18 41 14
41 -5 0 -3 4 3 8 15 10 64 99 58 105 -3 3 5 22 19 44 28 44 34 62 42 123 4 25
10 61 15 80 7 28 8 23 4 -25 -2 -33 -9 -113 -14 -177 -5 -64 -15 -129 -23
-145 -16 -31 -107 -313 -107 -331 0 -9 41 -12 146 -12 116 0 144 3 136 13 -5
6 -22 47 -36 89 -21 60 -28 104 -33 200 -6 122 2 149 18 66 5 -24 11 -54 14
-68 3 -14 8 -38 11 -54 2 -16 7 -33 9 -37 3 -4 6 -27 6 -51 1 -23 5 -47 9 -53
4 -5 11 -29 15 -52 6 -37 20 -63 29 -52 3 4 -25 151 -39 209 -6 23 -4 22 32
-13 55 -52 103 -47 103 12 0 16 3 22 10 15 18 -18 60 -145 60 -184 l0 -40 105
0 c95 0 104 2 98 18 -6 16 -5 16 14 -1 13 -11 36 -17 72 -17 52 0 53 0 47 27
-17 74 -15 95 7 115 l22 19 -22 -6 c-14 -4 -23 -2 -23 5 0 6 4 9 8 6 4 -2 14
-1 22 5 8 5 10 9 5 9 -6 0 -11 9 -12 20 -1 13 4 20 17 20 16 0 17 4 10 31 -8
25 -7 29 5 19 11 -9 12 -7 7 12 -5 20 -4 21 11 9 9 -7 14 -18 10 -24 -3 -6 -1
-7 5 -3 7 4 38 -11 69 -32 72 -49 128 -78 118 -61 -6 8 1 10 23 7 19 -3 29 0
25 5 -3 6 -1 7 4 4 6 -4 13 0 17 8 6 18 26 20 26 3 0 -6 -3 -8 -7 -5 -3 4 -12
-1 -19 -11 -9 -13 -9 -19 -1 -24 8 -5 6 -8 -5 -8 -9 0 -18 5 -20 10 -2 7 -10
5 -22 -3 -19 -14 -18 -15 13 -46 19 -18 37 -28 44 -24 7 4 6 0 -2 -10 -7 -9
-18 -14 -25 -10 -6 4 -4 -4 5 -17 10 -14 25 -24 35 -23 11 1 13 0 7 -3 -18 -8
-16 -24 1 -24 8 0 16 10 18 23 2 12 8 22 15 22 6 0 15 4 20 9 4 5 3 6 -3 3
-14 -8 -27 20 -14 28 6 4 16 3 23 -1 8 -5 8 -2 -2 9 -12 15 -11 17 9 17 19 0
20 2 10 15 -7 8 -19 15 -27 15 -10 0 -14 7 -10 20 3 13 1 18 -6 13 -6 -4 -8 0
-4 10 4 10 2 16 -6 14 -7 -1 -11 4 -9 11 2 14 -34 16 -43 2 -4 -6 -11 -8 -16
-5 -5 4 -9 1 -9 -4 0 -6 -7 -11 -15 -11 -16 0 -21 25 -7 34 12 7 -5 142 -22
178 -9 17 -13 34 -10 39 3 5 0 9 -5 9 -6 0 -11 7 -11 15 0 8 4 15 10 15 5 0
14 8 19 18 11 21 -15 126 -48 190 -12 24 -19 47 -16 52 3 5 -3 13 -12 19 -25
14 -7 14 20 -1 20 -10 21 -10 8 5 -7 10 -23 17 -35 17 -17 0 -18 2 -6 10 13 8
9 13 -10 12 -3 0 -14 12 -24 26 l-20 27 22 -19 c21 -18 69 -26 102 -16 8 3 14
-1 15 -7 0 -14 9 -17 28 -10 9 4 9 6 0 6 -7 1 -17 10 -22 20 -8 14 -7 22 7 32
15 12 15 12 6 -1 -17 -21 6 -43 24 -23 9 9 10 13 1 13 -8 0 -8 4 -1 12 5 8 6
22 1 33 -6 17 -8 17 -8 3 -2 -38 -21 -15 -21 25 0 28 -10 60 -30 96 -17 30
-29 55 -28 56 2 1 13 8 26 14 34 18 27 50 -26 116 -39 47 -58 62 -97 74 -45
14 -50 19 -53 49 -3 28 0 32 22 32 34 0 77 17 104 42 18 18 22 32 22 85 0 36
-5 73 -10 83 -8 16 -8 18 5 14 8 -4 22 -3 31 0 14 5 14 9 3 23 -13 15 -11 16
11 10 23 -6 24 -5 6 8 -18 13 -18 14 2 12 11 0 19 -4 16 -8 -2 -4 5 -18 16
-31 15 -20 17 -28 7 -38 -10 -12 -9 -12 6 -1 17 13 17 15 0 33 -16 18 -16 19
3 12 10 -4 25 -11 32 -17 6 -5 12 -7 12 -3 0 3 16 -1 37 -9 20 -8 38 -13 41
-10 3 3 0 5 -6 5 -6 0 -9 7 -6 15 5 11 2 13 -12 8 -16 -6 -17 -5 -4 9 14 14
16 14 27 -6 10 -17 12 -3 13 87 0 116 0 116 -56 95 -26 -9 -39 -9 -59 0 -14 7
-24 16 -21 20 2 4 0 14 -6 22 -8 12 -9 12 -4 -2 7 -22 0 -22 -44 2 l-35 19 80
-5 c79 -5 81 -5 113 25 31 30 32 34 32 111 0 70 -2 81 -22 94 -12 9 -36 16
-53 16 -16 0 -40 3 -52 6 -20 6 -18 9 24 41 46 35 47 35 75 19 l28 -17 0 99
c0 83 -3 101 -16 106 -26 10 -29 -1 -9 -30 17 -26 17 -28 -1 -41 -10 -7 -23
-13 -30 -13 -6 0 -54 29 -106 64 -52 36 -110 69 -129 73 -29 8 -19 11 76 21
61 7 134 12 163 12 l52 0 0 50 c0 49 -1 50 -30 50 -26 0 -32 6 -51 50 -12 27
-27 55 -35 61 -10 8 -14 38 -14 110 l0 98 31 17 31 16 -6 -51 c-7 -62 14 -139
49 -171 l23 -21 1 83 c1 58 -2 79 -9 68 -6 -8 -8 -33 -5 -55 6 -39 6 -40 -10
-15 -10 17 -14 47 -13 95 2 85 6 105 24 105 8 0 14 10 14 21 0 19 -4 21 -34
16 -33 -5 -34 -5 -23 23 6 16 21 33 34 39 22 10 23 15 23 126 0 63 -1 115 -2
115 -2 0 -31 -38 -66 -84z m-108 -208 c54 -77 -27 -165 -212 -231 l-63 -22 79
0 c48 0 89 -5 105 -14 30 -16 52 -61 42 -90 -13 -41 -114 -85 -329 -142 -39
-10 -109 -31 -156 -47 l-85 -28 153 150 c84 83 161 154 170 158 9 4 13 7 8 7
-4 1 11 20 34 44 24 23 47 41 52 39 5 -1 7 1 4 6 -7 12 68 84 79 75 4 -5 5 -3
2 3 -3 6 7 24 23 39 17 16 30 26 30 22 0 -4 14 -1 30 8 30 16 40 27 19 23 -6
-2 -14 3 -16 10 -8 20 15 13 31 -10z m-1842 -468 c6 0 7 -7 4 -16 -4 -9 -2
-22 4 -29 7 -8 7 -15 1 -19 -11 -7 -62 54 -54 67 3 4 12 6 20 3 8 -3 19 -6 25
-6z m26 -105 c-3 -3 -9 2 -12 12 -6 14 -5 15 5 6 7 -7 10 -15 7 -18z m-28 -50
c10 -15 7 -14 -13 4 -15 14 -27 29 -27 33 0 10 16 -5 40 -37z m60 24 c0 -6 -4
-7 -10 -4 -5 3 -10 11 -10 16 0 6 5 7 10 4 6 -3 10 -11 10 -16z m1535 -48 c56
-12 88 -26 105 -46 12 -15 11 -19 -10 -36 -28 -21 -82 -39 -121 -39 -34 0
-204 27 -249 39 -19 5 -59 12 -87 16 -73 9 -69 -10 4 -25 31 -7 66 -16 77 -20
43 -17 61 -23 71 -25 6 0 9 -6 8 -12 -1 -6 6 -9 19 -5 16 4 19 2 13 -8 -5 -9
-4 -11 4 -6 24 15 128 -73 160 -135 27 -51 36 -111 22 -138 -9 -16 -21 -21
-49 -21 -31 0 -50 10 -101 51 -150 121 -241 184 -309 216 -49 23 -70 38 -65
46 5 9 4 9 -8 0 -10 -8 -19 -9 -29 -1 -13 8 -12 9 2 4 13 -4 17 1 15 22 -2 24
6 31 59 58 61 31 113 51 156 59 13 3 37 9 53 15 32 10 195 5 260 -9z m-619
-155 c-3 -12 -6 -25 -7 -31 -1 -12 -17 25 -18 41 -1 6 6 11 15 11 11 0 14 -7
10 -21z m880 -29 c-10 -7 -32 -23 -48 -36 -28 -23 -29 -27 -26 -98 2 -44 -1
-73 -7 -73 -5 0 -3 -5 5 -10 13 -8 13 -10 1 -10 -11 0 -9 -4 5 -15 19 -14 19
-14 -1 -15 -14 0 -26 13 -40 43 -11 23 -26 47 -34 53 -9 7 -11 16 -6 25 5 8 5
11 0 7 -4 -4 -18 7 -30 24 l-22 32 45 35 c44 33 83 46 147 48 27 1 28 0 11
-10z m-836 -77 c0 -5 -2 -10 -4 -10 -3 0 -8 5 -11 10 -3 6 -1 10 4 10 6 0 11
-4 11 -10z m946 -7 c13 -5 1 -11 -41 -22 -43 -12 -63 -22 -71 -39 -13 -27 -18
-22 -29 27 -5 24 -3 36 6 43 14 9 103 4 135 -9z m-889 -6 c-11 17 81 -9 156
-45 81 -39 169 -123 187 -180 10 -33 11 -45 1 -55 -20 -20 -128 45 -177 106
-22 29 -74 75 -115 103 -40 28 -76 59 -78 70 -3 17 -2 17 15 4 10 -8 15 -10
11 -3z m859 -46 c-8 -12 -46 -21 -46 -11 0 9 18 18 38 19 7 1 11 -3 8 -8z m44
-61 c0 -26 -4 -30 -28 -30 -27 0 -72 24 -72 39 0 4 13 6 29 3 16 -2 37 1 48 7
10 6 19 11 21 11 1 0 2 -13 2 -30z m-100 -51 c0 -14 -45 0 -57 18 -7 9 -13 26
-13 37 0 17 5 15 35 -14 19 -19 35 -37 35 -41z m-695 -89 c10 -11 14 -20 9
-20 -5 0 -15 9 -22 20 -7 11 -11 20 -9 20 2 0 12 -9 22 -20z m122 -97 c-10 -9
-47 13 -56 33 l-11 25 35 -28 c19 -15 33 -28 32 -30z m272 11 c43 -49 49 -64
29 -64 -9 0 -9 -3 1 -9 8 -5 15 -19 16 -30 1 -16 -1 -18 -12 -9 -11 9 -12 13
-1 19 10 6 8 9 -6 9 -12 0 -16 -5 -13 -15 4 -8 2 -17 -3 -20 -6 -4 -10 -12
-10 -18 0 -7 4 -6 11 3 9 13 10 13 6 -1 -3 -9 0 -22 6 -28 23 -23 -83 28 -148
73 l-67 44 68 -1 c66 -2 67 -2 75 27 5 17 4 37 -2 48 -18 34 8 19 50 -28z
m-375 10 c3 -8 2 -12 -4 -9 -6 3 -10 10 -10 16 0 14 7 11 14 -7z m-1593 -31
c12 -14 12 -17 0 -21 -7 -2 -34 -26 -58 -53 -52 -55 -83 -58 -56 -6 16 33 78
97 92 97 5 0 15 -7 22 -17z m1672 -69 c27 -26 46 -49 43 -51 -9 -10 15 -44 26
-37 7 4 6 9 -3 15 -7 4 -10 11 -7 14 9 10 28 -4 28 -20 0 -19 -30 -26 -65 -16
-16 5 -22 10 -12 10 20 1 23 35 5 50 -52 41 -91 80 -78 80 8 1 37 -20 63 -45z
m-1840 14 c-10 -15 -46 -105 -64 -163 -47 -156 -166 -306 -296 -374 -21 -10
-20 -7 8 38 17 27 53 75 80 107 58 68 167 229 199 294 24 48 67 110 77 110 3
0 1 -6 -4 -12z m1025 -52 c30 -33 30 -34 9 -40 -24 -6 -56 26 -57 57 0 26 13
21 48 -17z m1349 18 c-3 -3 -12 -4 -19 -1 -8 3 -5 6 6 6 11 1 17 -2 13 -5z
m-527 -30 c0 -14 -2 -15 -17 -3 -15 12 -16 12 -9 -6 5 -15 4 -17 -5 -8 -6 6
-8 16 -5 22 11 17 36 13 36 -5z m100 0 c0 -8 -5 -12 -10 -9 -6 4 -8 11 -5 16
9 14 15 11 15 -7z m92 -44 c3 -16 3 -30 2 -30 -8 0 -33 58 -27 63 11 11 21 -2
25 -33z m-35 0 c10 -26 9 -30 -6 -30 -9 0 -22 -5 -27 -10 -16 -16 -35 11 -28
37 5 19 14 25 44 32 3 0 11 -12 17 -29z m-885 -9 l33 -29 -28 5 c-15 3 -26 8
-23 10 3 3 -5 14 -17 24 -12 10 -16 18 -10 19 7 0 27 -13 45 -29z m975 -31
c-9 -48 -8 -51 23 -87 18 -21 40 -41 49 -45 13 -5 13 -7 -3 -7 -21 -1 -116 91
-116 111 0 8 7 5 15 -6 14 -19 15 -18 15 10 0 37 10 74 20 74 4 0 3 -22 -3
-50z m-155 4 c14 -9 9 -34 -7 -41 -9 -3 -23 3 -31 13 -9 11 -13 12 -9 4 4 -8
-2 -4 -13 9 l-19 23 5 -31 c2 -19 0 -31 -7 -31 -6 0 -11 7 -11 16 0 8 -5 12
-11 8 -6 -3 -8 -18 -5 -33 5 -19 4 -22 -4 -11 -18 28 -12 70 13 80 20 9 81 5
99 -6z m236 -4 c5 -13 3 -13 -13 0 -17 14 -18 13 -13 -18 4 -31 4 -32 -16 -18
-12 7 -23 22 -24 32 -4 18 -3 18 12 -1 15 -20 15 -20 16 3 0 26 30 28 38 2z
m-1101 4 c-3 -3 -12 -4 -19 -1 -8 3 -5 6 6 6 11 1 17 -2 13 -5z m953 -23 c15
-29 13 -101 -2 -97 -7 3 -26 7 -43 11 -29 6 -29 6 -10 -9 11 -8 16 -16 11 -16
-5 0 -18 7 -27 16 -10 9 -29 18 -41 19 -13 1 -27 3 -32 4 -5 0 -3 8 4 16 9 11
16 12 31 2 17 -10 23 -9 36 8 11 14 17 16 20 8 3 -7 9 -13 14 -13 5 0 4 9 -3
19 -9 15 -9 23 1 35 18 21 28 20 41 -3z m-1048 -25 c2 -19 0 -32 -4 -30 -8 5
-12 64 -4 64 2 0 6 -15 8 -34z m97 25 c11 -7 9 -13 -8 -30 -21 -21 -16 -26 13
-15 9 3 16 13 16 21 0 8 5 11 12 7 15 -9 -27 -44 -53 -44 -23 0 -24 17 -2 42
15 17 15 18 -5 18 -22 0 -25 -8 -25 -62 1 -16 -3 -28 -8 -28 -12 0 -11 57 1
81 11 20 36 24 59 10z m-2165 -55 c-9 -31 -33 -51 -87 -71 -27 -9 -51 -25 -54
-34 -4 -9 -23 -38 -44 -64 -34 -43 -38 -46 -41 -25 -8 56 31 156 55 141 5 -3
7 -1 4 4 -4 6 0 17 9 24 8 7 22 25 29 39 14 26 15 27 75 17 55 -9 60 -12 54
-31z m2205 -40 c-9 -8 -10 -7 -5 7 3 10 7 26 7 35 1 9 4 6 6 -7 3 -13 -1 -28
-8 -35z m-1414 -66 c-68 -136 -111 -196 -199 -285 -101 -100 -187 -147 -282
-153 -92 -6 -84 14 31 78 71 38 201 127 267 183 45 36 110 114 152 182 18 29
66 85 73 85 2 0 -17 -40 -42 -90z m-1161 48 c-9 -14 -23 2 -17 18 4 12 8 13
14 3 4 -7 5 -17 3 -21z m3351 22 c-3 -5 -11 -10 -16 -10 -6 0 -7 5 -4 10 3 6
11 10 16 10 6 0 7 -4 4 -10z m-911 -17 c-7 -2 -9 -13 -6 -25 3 -14 1 -19 -6
-14 -7 4 -12 13 -12 20 0 15 22 38 29 29 3 -3 1 -8 -5 -10z m89 10 c-7 -2 -19
-2 -25 0 -7 3 -2 5 12 5 14 0 19 -2 13 -5z m117 -3 c0 -5 -4 -10 -10 -10 -5 0
-10 5 -10 10 0 6 5 10 10 10 6 0 10 -4 10 -10z m-81 -27 c-13 -17 -12 -17 14
0 15 10 27 13 27 8 0 -5 10 -13 22 -17 21 -6 21 -7 3 -21 -11 -7 -31 -11 -45
-8 -14 3 -38 -2 -54 -10 -33 -17 -31 -18 -40 12 -6 17 -3 20 12 17 10 -3 29 4
43 15 30 25 36 26 18 4z m979 -6 c10 -8 8 -13 -8 -24 -23 -16 -27 -68 -7 -80
20 -12 27 -50 12 -63 -9 -8 -14 -3 -19 21 -5 24 -10 30 -28 27 -12 -2 -32 -17
-44 -35 -13 -20 -25 -28 -33 -24 -9 6 -2 17 23 37 19 16 36 36 38 44 2 8 9 21
16 28 6 7 12 31 12 53 0 40 4 42 38 16z m-758 -44 c33 -34 20 -30 -25 8 -11
10 -31 19 -44 21 -14 1 -26 8 -28 15 -9 25 62 -7 97 -44z m676 39 c2 -8 0 -8
-3 -1 -3 7 -8 8 -12 1 -9 -14 -55 -27 -47 -13 9 14 0 14 -26 0 -14 -8 -18 -8
-14 0 8 12 64 30 85 28 8 -1 16 -8 17 -15z m-2010 -14 c-9 -13 -19 -31 -23
-41 -5 -16 -26 -20 -23 -4 3 20 37 67 49 67 10 0 10 -5 -3 -22z m233 -22 c-6
-23 -34 -62 -75 -106 -55 -58 -75 -72 -127 -89 -65 -21 -85 -21 -45 -1 12 7
46 30 74 51 29 21 55 35 59 31 4 -4 5 -2 3 4 -4 15 50 76 61 69 5 -2 8 3 7 13
0 9 5 16 12 15 6 -2 11 0 10 5 -3 9 22 55 28 50 2 -2 -1 -21 -7 -42z m1938 20
c-10 -8 -28 -11 -40 -8 -22 6 -22 6 3 13 43 12 58 10 37 -5z m-1205 -15 c-4
-21 18 -51 33 -45 17 7 20 30 5 37 -6 3 -5 4 2 3 19 -4 16 -37 -4 -50 -21 -13
-23 -10 -43 38 -12 29 -13 37 -3 33 7 -2 12 -10 10 -16z m226 -46 c0 -25 -4
-48 -9 -51 -5 -3 -9 -15 -10 -27 -1 -20 -2 -20 -8 3 -4 14 -5 34 -1 45 4 11 4
29 0 40 -7 18 4 34 22 35 4 0 7 -20 6 -45z m107 25 c-3 -5 -14 -10 -23 -11 -9
0 -1 -6 18 -13 19 -7 35 -19 35 -27 0 -9 -12 -15 -35 -16 -19 0 -25 1 -12 4
12 2 22 9 22 14 0 6 -5 7 -12 3 -7 -4 -8 -3 -4 4 5 8 -1 12 -18 12 -14 0 -30
-8 -35 -17 -14 -24 -14 -7 0 18 6 11 20 24 32 29 30 12 39 12 32 0z m810 -10
c14 12 35 6 35 -9 0 -13 -48 -19 -59 -8 -5 5 -7 17 -3 26 6 14 7 14 10 -2 3
-14 7 -16 17 -7z m-1163 -15 c12 -26 41 -41 58 -30 6 4 10 -18 10 -59 0 -35 4
-76 10 -91 9 -23 8 -24 -8 -16 -47 27 -48 29 -27 44 16 13 18 20 10 53 -7 25
-18 43 -32 49 -13 5 -23 17 -23 27 0 23 -18 32 -35 18 -18 -15 -20 1 -3 18 18
18 27 15 40 -13z m172 9 c14 -14 23 -54 12 -54 -2 0 -11 -3 -20 -6 -11 -4 -16
0 -16 14 0 11 6 23 13 25 6 3 2 6 -10 6 -34 1 -43 -46 -14 -70 18 -15 20 -22
11 -38 -6 -13 -16 -18 -26 -14 -9 3 -20 0 -25 -8 -12 -19 -12 72 0 104 10 26
38 57 51 57 5 0 16 -7 24 -16z m853 -9 c0 -8 -3 -15 -6 -16 -3 0 -18 -3 -32
-5 -17 -3 -31 2 -40 12 -13 16 -12 16 10 5 19 -11 25 -11 32 0 5 8 9 10 9 5 0
-6 5 -5 12 2 15 15 15 15 15 -3z m-2016 -16 c-2 -8 -5 -22 -6 -33 -2 -24 -96
-111 -215 -200 -107 -79 -104 -77 -145 -110 -34 -27 -118 -70 -155 -80 -14 -4
-2 6 26 21 149 82 379 279 452 386 24 36 52 46 43 16z m924 -10 c7 -21 -13
-43 -47 -52 -23 -6 -23 -4 5 38 26 40 33 43 42 14z m492 -1 c-3 -8 -6 -5 -6 6
-1 11 2 17 5 13 3 -3 4 -12 1 -19z m793 2 c0 -5 -7 -7 -15 -4 -8 4 -15 8 -15
10 0 2 7 4 15 4 8 0 15 -4 15 -10z m-20 -26 c0 -20 -7 -17 -20 6 -9 16 -8 18
5 14 8 -4 15 -12 15 -20z m-1738 -70 l-10 -59 -1 70 c-1 49 2 66 10 58 7 -7 7
-29 1 -69z m562 47 c18 -15 21 -56 6 -66 -19 -11 -40 3 -33 21 6 16 7 16 14
-2 6 -18 7 -18 14 -1 18 44 -27 66 -47 22 -8 -19 -8 -28 2 -40 10 -12 10 -15
-4 -15 -10 0 -16 9 -16 24 0 13 -7 30 -16 37 -15 12 -14 15 12 25 33 14 46 13
68 -5z m301 9 c3 -6 -4 -10 -17 -10 -18 0 -20 2 -8 10 19 12 18 12 25 0z m-54
-10 c1 8 5 -3 8 -25 6 -38 8 -40 41 -40 19 0 50 8 69 18 29 16 33 16 27 2 -3
-9 -6 -22 -6 -28 0 -10 -61 -14 -112 -8 -11 1 -35 42 -43 71 -5 19 -4 21 4 10
10 -13 11 -13 12 0z m132 -5 c-3 -9 -8 -14 -10 -11 -3 3 -2 9 2 15 9 16 15 13
8 -4z m690 -5 c-3 -11 -9 -17 -14 -14 -5 3 -9 0 -9 -5 0 -6 7 -11 16 -11 13 0
13 -4 -2 -30 -10 -16 -20 -27 -23 -24 -9 8 -1 77 11 91 16 19 27 16 21 -7z
m-138 -4 c25 -11 33 -19 29 -30 -7 -19 -12 -19 -44 -1 -14 8 -19 14 -11 15 11
0 9 4 -5 15 -24 19 -13 19 31 1z m-1588 -28 c-2 -18 -10 -67 -17 -109 -10 -56
-11 -94 -3 -150 6 -41 8 -78 4 -84 -10 -17 -10 -35 0 -29 5 3 7 10 4 15 -13
20 8 8 27 -16 11 -15 30 -25 44 -25 24 0 24 -1 9 -29 -8 -17 -31 -42 -50 -57
-19 -14 -35 -34 -35 -44 0 -9 -9 -25 -19 -34 -18 -16 -21 -16 -44 -1 -41 27
-57 73 -57 167 0 81 25 213 52 274 20 46 79 154 85 154 2 0 3 -15 0 -32z
m1839 -5 c-5 -19 -10 -23 -16 -14 -5 8 -13 10 -21 5 -10 -6 -10 -3 1 12 32 41
46 40 36 -3z m-1272 5 c8 -13 6 -22 -8 -37 -18 -20 -36 -20 -36 1 0 5 7 8 15
4 17 -6 21 19 5 29 -13 8 -40 -13 -40 -31 0 -19 31 -46 47 -40 8 4 17 -4 23
-18 5 -13 14 -27 20 -31 6 -4 2 -13 -12 -24 -21 -18 -22 -18 -38 13 -9 17 -24
45 -33 61 -20 36 -22 66 -5 83 17 17 48 11 62 -10z m949 -14 c-3 -8 -11 -13
-18 -11 -6 3 -12 -1 -12 -9 0 -8 7 -12 16 -9 9 2 22 1 29 -4 11 -7 10 -9 -3
-14 -9 -4 -13 -3 -10 3 10 16 -11 11 -25 -5 -8 -9 -17 -12 -22 -7 -12 12 9 65
22 57 5 -3 10 -1 10 4 0 6 4 11 10 11 5 0 7 -7 3 -16z m-608 -25 c17 -6 44
-13 60 -15 28 -4 65 -35 65 -55 0 -19 -33 -22 -45 -5 -10 13 -14 14 -18 4 -4
-9 -6 -7 -6 4 -1 9 -10 20 -21 23 -11 4 -18 12 -14 18 3 7 -6 -1 -20 -18 -14
-16 -26 -44 -28 -61 -3 -32 -3 -32 -33 -18 -21 10 -24 13 -8 10 16 -3 24 2 29
18 8 24 7 79 -1 110 -4 13 -3 16 2 9 5 -6 22 -17 38 -24z m1054 -7 c7 -16 13
-43 14 -62 2 -29 -2 -36 -25 -44 -20 -7 -33 -5 -55 9 -20 14 -24 20 -13 23 31
10 50 36 50 69 0 40 14 43 29 5z m-1199 3 c0 -8 -2 -15 -4 -15 -2 0 -6 7 -10
15 -3 8 -1 15 4 15 6 0 10 -7 10 -15z m320 -1 c0 -8 -5 -12 -10 -9 -6 4 -8 11
-5 16 9 14 15 11 15 -7z m730 1 c0 -8 -4 -15 -10 -15 -5 0 -7 7 -4 15 4 8 8
15 10 15 2 0 4 -7 4 -15z m-132 -30 c-1 -14 -5 -25 -9 -25 -3 0 -11 11 -17 25
-10 22 -9 25 8 25 15 0 19 -6 18 -25z m-920 -26 c2 -23 2 -23 -13 -5 -18 24
-20 39 -2 34 6 -3 13 -15 15 -29z m325 8 c-4 -6 1 -8 11 -4 10 4 15 3 11 -3
-3 -6 -12 -10 -20 -10 -7 0 -15 -6 -18 -12 -2 -7 -4 -1 -3 13 0 14 6 26 13 26
7 0 9 -5 6 -10z m-583 -26 c7 -13 7 -22 0 -26 -15 -9 -32 5 -26 21 10 25 -19
15 -31 -11 -8 -19 -8 -23 0 -18 7 3 9 3 5 -2 -4 -4 0 -14 10 -21 16 -13 16
-13 0 -14 -10 0 -18 5 -18 10 0 6 -6 10 -14 10 -23 0 -17 50 8 60 34 14 55 11
66 -9z m440 -21 c0 -12 -7 -20 -17 -20 -9 0 -14 -3 -10 -6 10 -10 47 7 47 22
0 8 5 12 10 9 31 -19 -29 -65 -66 -51 -14 5 -15 4 -4 -9 10 -12 10 -19 2 -27
-22 -22 -12 -32 11 -11 15 14 37 21 71 22 57 2 57 -2 -2 -22 -38 -13 -43 -13
-38 0 4 10 -2 8 -23 -6 -27 -20 -29 -20 -45 -2 -20 22 -20 28 -1 47 8 9 15 26
15 38 0 27 8 36 32 36 11 0 18 -7 18 -20z m-1307 -7 c-3 -7 2 -13 12 -13 9 0
14 4 11 8 -3 5 5 8 17 7 16 -1 22 -8 22 -28 1 -14 -3 -23 -7 -21 -8 5 -11 -9
-9 -37 2 -23 -88 -103 -155 -137 -130 -65 -304 -107 -501 -121 -134 -10 -181
-22 -270 -70 -29 -16 -53 -26 -53 -22 0 16 79 82 136 114 99 55 192 80 354 93
202 16 340 68 340 130 0 34 -24 48 -61 35 -25 -9 -29 -8 -20 2 19 24 120 70
141 64 11 -3 18 -1 15 3 -3 5 3 8 14 7 11 0 17 -6 14 -14z m2117 2 c-7 -8 -18
-15 -24 -15 -6 0 -2 7 8 15 25 19 32 19 16 0z m-1365 -5 c16 -6 13 -8 -13 -7
-19 0 -38 -6 -43 -14 -7 -11 -9 -11 -9 3 0 25 29 33 65 18z m155 -32 c0 -30
-1 -31 -14 -12 -10 13 -11 23 -4 31 15 19 18 16 18 -19z m1329 -112 c24 -44
37 -74 29 -66 -8 8 -47 50 -88 92 -73 77 -73 78 -54 99 l18 20 26 -31 c15 -18
45 -69 69 -114z m-1251 101 c2 -18 -2 -29 -12 -33 -17 -7 -46 12 -46 28 0 6 6
5 15 -2 8 -6 19 -8 26 -4 8 5 7 9 -5 16 -9 5 -14 14 -10 19 10 17 29 3 32 -24z
m74 0 c-12 -13 -22 -30 -22 -39 0 -11 -6 -15 -18 -11 -31 8 -16 47 21 60 18 5
34 11 36 12 3 0 -5 -9 -17 -22z m-901 -9 c-5 -13 -27 -64 -49 -114 -45 -101
-79 -203 -93 -279 -5 -27 -20 -99 -33 -160 -19 -83 -22 -112 -13 -118 8 -6 6
-7 -5 -3 -12 4 -26 -6 -45 -32 -35 -47 -47 -57 -105 -87 -42 -22 -47 -23 -59
-9 -34 41 -3 181 66 297 53 89 38 88 -27 -2 -108 -149 -229 -259 -317 -289
-78 -27 -204 -9 -254 37 -26 24 -28 30 -23 79 8 70 26 102 99 175 75 74 184
134 372 202 217 80 310 135 421 251 38 39 70 72 71 73 1 1 -1 -9 -6 -21z m638
8 c15 -8 34 -23 42 -33 13 -17 13 -17 -6 -1 -32 26 -67 36 -99 27 -17 -5 -26
-5 -20 0 5 5 18 11 29 14 11 3 21 5 23 6 2 0 15 -5 31 -13z m367 -38 c4 -14
12 -18 28 -14 26 6 50 -25 41 -55 -6 -19 -7 -19 -26 4 -36 46 -82 37 -99 -20
l-8 -28 -1 31 c-1 20 5 34 14 38 9 3 15 18 15 40 0 27 4 34 15 30 8 -3 17 -15
21 -26z m290 -10 l19 -23 -25 20 c-14 11 -27 21 -29 22 -2 2 0 3 6 3 5 0 18
-10 29 -22z m-37 -2 c-2 -2 -15 -9 -29 -15 -24 -11 -24 -11 -6 3 16 13 49 24
35 12z m-568 -33 l24 -28 -26 23 c-30 26 -48 29 -28 5 12 -15 11 -14 -13 1
-15 10 -33 14 -39 10 -8 -4 -9 -3 -5 4 13 22 61 13 87 -15z m119 21 c0 -8 -19
-13 -24 -6 -3 5 1 9 9 9 8 0 15 -2 15 -3z m-256 -20 c3 -8 2 -12 -4 -9 -6 3
-10 10 -10 16 0 14 7 11 14 -7z m356 -25 c0 -16 -5 -29 -11 -29 -5 0 -7 -5 -3
-12 4 -6 3 -8 -4 -4 -6 4 -8 17 -3 34 4 15 6 33 3 41 -3 8 0 11 7 7 6 -4 11
-20 11 -37z m963 25 c53 -28 148 -126 173 -179 32 -68 33 -149 1 -189 -19 -23
-33 -30 -74 -33 -110 -11 -224 77 -308 239 -27 53 -51 95 -52 94 -6 -5 60
-151 115 -257 62 -119 81 -187 65 -235 -21 -63 -68 -54 -122 22 -39 53 -57
102 -82 223 -22 108 -24 174 -7 248 l13 53 55 1 c30 0 75 6 100 13 63 19 86
18 123 0z m-713 -38 c0 -5 -7 -3 -15 4 -12 10 -15 9 -15 -5 0 -10 -2 -16 -5
-13 -4 3 -3 18 1 32 6 25 7 25 20 9 7 -10 14 -22 14 -27z m-363 12 c-3 -8 -6
-5 -6 6 -1 11 2 17 5 13 3 -3 4 -12 1 -19z m438 4 c-3 -3 -14 -6 -25 -7 -15
-1 -17 1 -9 11 6 7 17 10 25 7 8 -3 12 -8 9 -11z m-391 -8 c10 -25 -1 -29 -14
-5 -6 12 -7 21 -1 21 5 0 12 -7 15 -16z m-492 -16 c-7 -7 -12 -8 -12 -2 0 14
12 26 19 19 2 -3 -1 -11 -7 -17z m74 10 c0 -7 -23 -33 -51 -58 -27 -24 -38
-31 -24 -15 15 17 38 42 50 57 13 15 24 28 25 28 0 0 0 -6 0 -12z m604 -3 c6
-8 10 -20 7 -27 -4 -9 -6 -7 -6 3 -1 19 -28 33 -36 19 -4 -6 -11 -10 -17 -10
-7 0 -6 6 2 15 16 19 34 19 50 0z m-690 -55 c-17 -32 -29 -32 -17 -1 6 17 15
28 19 25 4 -3 4 -14 -2 -24z m104 18 c-5 -8 -2 -9 9 -5 33 12 16 -4 -18 -19
-19 -8 -35 -20 -35 -27 0 -8 3 -8 9 2 5 8 16 11 26 8 9 -4 14 -3 11 2 -8 13
29 20 45 9 11 -7 9 -8 -6 -6 -14 2 -19 -2 -17 -14 2 -13 -3 -16 -25 -12 l-28
5 22 -16 c21 -15 27 -14 97 25 67 37 107 45 91 19 -4 -5 3 -8 14 -6 11 1 20
-2 20 -8 0 -5 -10 -9 -22 -7 -18 2 -19 1 -7 -7 8 -6 10 -11 4 -11 -21 0 -35
25 -22 38 9 9 9 12 0 12 -7 0 -15 -7 -18 -15 -4 -8 -10 -13 -14 -10 -8 5 -58
-19 -110 -54 -14 -9 -38 -23 -55 -31 -16 -8 -47 -25 -68 -38 -21 -12 -43 -20
-50 -16 -7 4 -9 4 -5 -1 9 -9 -72 -48 -81 -39 -3 3 5 15 19 26 14 11 24 25 23
29 -2 5 2 9 8 9 5 0 8 4 5 9 -8 12 19 33 29 23 5 -4 5 -2 2 4 -4 7 10 24 31
40 20 15 54 43 75 61 38 34 54 42 41 21z m-1226 -3 c-3 -3 -72 -23 -154 -45
-82 -21 -141 -33 -131 -25 15 11 15 14 3 18 -9 4 -18 2 -21 -4 -4 -5 -12 -6
-18 -3 -8 5 -8 3 1 -7 15 -16 16 -29 2 -29 -21 0 -107 -45 -147 -77 -44 -35
-60 -79 -25 -66 15 6 15 5 3 -10 -7 -9 -19 -17 -26 -17 -8 0 -16 -8 -19 -17
-4 -14 -4 -13 -3 2 2 11 -4 25 -12 31 -15 12 -24 77 -9 68 5 -3 5 -10 2 -16
-4 -6 -1 -8 7 -6 8 3 13 10 12 15 -1 6 9 9 22 8 13 -2 26 3 29 11 3 8 0 14 -7
14 -8 0 -6 4 3 10 8 5 11 10 6 10 -5 0 -3 7 4 15 10 12 10 15 -1 15 -14 1 28
21 70 35 18 5 22 4 17 -6 -4 -8 -1 -6 8 5 8 10 23 20 33 21 10 1 32 7 48 14
17 8 52 16 79 19 45 4 49 3 43 -14 -7 -18 -6 -18 7 -1 7 9 28 18 47 18 19 1
48 5 64 9 37 9 70 12 63 5z m2056 -30 c-4 -8 -8 -15 -10 -15 -2 0 -4 7 -4 15
0 8 4 15 10 15 5 0 7 -7 4 -15z m35 -25 c-5 -16 -13 -44 -19 -62 -14 -45 -87
-189 -111 -218 l-20 -25 16 33 c8 17 13 32 10 32 -3 0 1 10 10 23 8 13 12 27
8 32 -5 4 -3 5 4 2 12 -8 36 47 25 59 -4 4 -1 4 6 0 7 -4 12 -1 13 8 2 25 3
28 31 89 29 62 42 75 27 27z m-455 1 c3 -4 -6 -6 -19 -3 -14 2 -25 6 -25 8 0
8 39 4 44 -5z m96 -11 c12 -7 10 -9 -8 -7 -12 0 -22 5 -22 9 0 11 12 10 30 -2z
m-346 -31 c-9 -10 -20 -16 -25 -14 -4 3 -15 -2 -23 -11 -9 -9 -16 -11 -16 -4
0 6 16 18 35 26 22 9 33 19 29 26 -5 7 -3 8 5 4 9 -6 8 -13 -5 -27z m-629 -81
c0 -95 13 -138 40 -138 24 0 18 -12 -37 -78 -44 -53 -55 -60 -64 -47 -12 16
-8 144 6 185 5 14 19 58 31 98 12 39 22 72 23 72 1 0 1 -42 1 -92z m1526 -11
c11 -40 23 -80 26 -89 10 -38 -19 -15 -39 30 -11 26 -24 49 -28 52 -19 12 -7
96 11 84 5 -3 18 -37 30 -77z m-767 58 c-4 -8 -10 -13 -14 -10 -5 3 -11 1 -15
-4 -3 -6 -12 -8 -20 -5 -10 4 -13 0 -10 -13 2 -12 -2 -20 -11 -20 -10 0 -11 4
-3 14 6 7 8 13 3 13 -15 0 -29 -14 -29 -29 0 -14 -341 -129 -397 -134 -14 -1
-24 -5 -21 -9 2 -5 -5 -8 -16 -8 -10 0 -28 -3 -38 -6 -10 -3 1 6 25 21 24 15
49 25 56 22 7 -3 13 1 13 9 0 8 -1 14 -1 14 -5 0 -140 -51 -157 -60 -17 -8
-13 -2 11 19 27 24 32 33 22 39 -18 12 59 31 111 27 20 -1 37 1 37 6 0 4 19
10 43 14 64 10 307 76 352 96 50 22 66 23 59 4z m-204 -10 c0 -9 -40 -25 -77
-31 -44 -7 -42 2 2 10 16 3 31 9 33 14 2 8 42 14 42 7z m1659 -142 c28 -98 34
-155 17 -178 -13 -18 -15 -18 -58 8 -54 31 -80 58 -49 50 11 -3 30 2 42 10 19
14 22 25 22 96 0 45 1 81 3 81 2 0 12 -30 23 -67z m-3114 6 c-61 -42 -133
-122 -161 -179 -11 -22 -15 -48 -11 -83 4 -42 10 -56 37 -80 l33 -30 -59 8
c-145 18 -166 60 -89 180 44 70 136 149 220 190 93 46 102 44 30 -6z m-605 16
c-12 -14 -7 -19 13 -16 5 1 6 -3 2 -9 -5 -8 -11 -8 -20 0 -15 12 -9 40 7 40 6
0 5 -6 -2 -15z m2075 5 c3 -6 -1 -7 -9 -4 -18 7 -21 14 -7 14 6 0 13 -4 16
-10z m-53 -18 c-13 -9 -39 -30 -58 -46 -19 -15 -34 -26 -34 -23 0 3 -15 0 -34
-8 -19 -8 -48 -16 -65 -17 -17 -1 -31 -5 -31 -8 0 -3 -10 -6 -22 -6 -13 -1
-41 -7 -63 -13 -46 -13 -95 -22 -95 -16 0 10 384 153 415 154 6 0 0 -8 -13
-17z m-2 -26 c0 -2 -6 -9 -14 -15 -11 -9 -16 -9 -22 0 -4 7 -3 9 4 5 6 -3 13
-2 17 4 6 10 15 14 15 6z m1036 -52 c15 6 20 -7 29 -67 18 -118 -56 -55 -79
67 l-7 38 23 -21 c12 -12 28 -19 34 -17z m-826 -25 c-19 -16 -40 -29 -46 -29
-7 0 -14 -4 -16 -9 -9 -25 -450 -217 -470 -205 -4 3 -8 1 -8 -4 0 -13 -90 -43
-103 -35 -5 3 -7 1 -4 -4 4 -6 -12 -17 -38 -26 -37 -12 -43 -12 -34 -1 6 8 22
14 35 14 13 0 23 4 22 9 -3 8 66 61 79 61 3 0 -1 -8 -8 -18 -13 -15 -12 -16 3
-3 10 7 15 18 11 24 -4 6 0 8 11 4 9 -4 15 -3 12 2 -3 4 35 27 85 50 50 24 89
45 86 47 -2 3 -40 -12 -83 -32 -43 -20 -85 -38 -94 -40 -53 -12 -105 -33 -103
-42 1 -5 -6 -8 -16 -5 -26 7 -123 -36 -114 -51 4 -6 -1 -5 -10 3 -18 14 -52 8
-42 -9 3 -6 -1 -7 -9 -4 -9 3 -24 3 -33 -2 -10 -4 -21 -8 -25 -8 -3 -1 -10 -4
-14 -8 -4 -5 -17 -8 -28 -7 -26 1 27 25 136 63 43 14 162 61 265 102 224 91
363 144 363 138 0 -3 -41 -23 -90 -46 -50 -22 -88 -43 -86 -45 2 -3 75 30 162
71 86 42 159 76 160 76 2 0 -4 -8 -13 -18 -10 -11 -22 -17 -28 -14 -5 3 -6 1
-2 -3 10 -12 38 -15 31 -4 -3 5 9 9 25 9 17 0 31 5 31 10 0 6 -3 9 -7 9 -20
-3 -24 2 -13 16 9 11 17 12 33 3 21 -11 20 -12 -13 -39z m-2015 2 c3 -5 2 -12
-3 -15 -5 -3 -9 1 -9 9 0 17 3 19 12 6z m1395 -6 c0 -2 -10 -9 -22 -15 -22
-11 -22 -10 -4 4 21 17 26 19 26 11z m-1775 -95 c-3 -5 -12 -10 -18 -10 -7 0
-6 4 3 10 19 12 23 12 15 0z m2375 -14 c0 -2 -7 -7 -16 -10 -8 -3 -12 -2 -9 4
6 10 25 14 25 6z m-170 -26 c-33 -23 -50 -30 -50 -23 0 5 10 13 23 19 28 15
47 17 27 4z m-2100 -4 c0 -3 -4 -8 -10 -11 -5 -3 -10 -1 -10 4 0 6 5 11 10 11
6 0 10 -2 10 -4z m2037 -30 c-8 -21 3 -27 27 -14 16 8 18 8 10 -1 -6 -6 -20
-13 -32 -16 -11 -2 -30 -9 -42 -15 -23 -12 -33 -8 -36 15 -1 9 4 11 14 8 10
-4 13 -2 8 5 -10 16 6 15 23 0 11 -11 12 -10 6 1 -4 8 -2 17 6 22 19 12 22 11
16 -5z m-97 -36 c-8 -5 -19 -10 -25 -10 -5 0 -3 5 5 10 8 5 20 10 25 10 6 0 3
-5 -5 -10z m225 0 c-3 -5 -12 -10 -18 -10 -7 0 -6 4 3 10 19 12 23 12 15 0z
m-155 -30 c-27 -21 -45 -26 -35 -9 6 9 41 27 55 28 3 0 -6 -8 -20 -19z m1995
-26 c1 -13 -5 -26 -13 -29 -7 -2 -11 -1 -8 3 2 4 1 14 -4 21 -5 8 -3 19 3 26
15 16 22 10 22 -21z m-1938 1 c0 -8 -4 -12 -9 -9 -5 3 -6 10 -3 15 9 13 12 11
12 -6z m1853 5 c0 -5 -2 -10 -4 -10 -3 0 -8 5 -11 10 -3 6 -1 10 4 10 6 0 11
-4 11 -10z m45 -10 c3 -5 -1 -10 -10 -10 -9 0 -13 5 -10 10 3 6 8 10 10 10 2
0 7 -4 10 -10z m-1983 -26 c-13 -9 -34 -27 -48 -41 -14 -14 -31 -22 -39 -19
-8 3 -15 0 -15 -6 0 -6 -3 -8 -7 -5 -3 4 -12 2 -20 -5 -7 -6 -16 -8 -19 -5 -9
8 49 35 64 30 7 -3 11 0 10 5 -2 6 2 11 7 12 6 1 24 13 40 26 17 13 34 24 40
24 5 0 -1 -7 -13 -16z m-682 -44 c-8 -5 -19 -10 -25 -10 -5 0 -3 5 5 10 8 5
20 10 25 10 6 0 3 -5 -5 -10z m666 -25 c-11 -8 -25 -15 -30 -15 -6 1 0 7 14
15 32 19 40 18 16 0z"/>
<path d="M4340 2905 c0 -8 29 -12 39 -5 9 5 4 8 -13 8 -14 0 -26 -2 -26 -3z"/>
<path d="M2530 2456 c0 -2 8 -10 18 -17 15 -13 16 -12 3 4 -13 16 -21 21 -21
13z"/>
<path d="M3633 2195 c0 -8 4 -12 9 -9 4 3 8 9 8 15 0 5 -4 9 -8 9 -5 0 -9 -7
-9 -15z"/>
<path d="M4108 1673 c7 -3 16 -2 19 1 4 3 -2 6 -13 5 -11 0 -14 -3 -6 -6z"/>
<path d="M2096 1652 c-3 -5 1 -9 9 -9 8 0 12 4 9 9 -3 4 -7 8 -9 8 -2 0 -6 -4
-9 -8z"/>
<path d="M2980 1576 c0 -2 8 -10 18 -17 15 -13 16 -12 3 4 -13 16 -21 21 -21
13z"/>
<path d="M3985 1450 c-4 -6 -1 -9 7 -8 7 2 12 -5 11 -16 -1 -11 2 -15 8 -9 11
11 2 43 -11 43 -5 0 -12 -5 -15 -10z"/>
<path d="M1977 973 c-4 -3 -7 -11 -7 -17 0 -6 5 -5 12 2 6 6 9 14 7 17 -3 3
-9 2 -12 -2z"/>
<path d="M946 698 c3 -5 10 -6 15 -3 13 9 11 12 -6 12 -8 0 -12 -4 -9 -9z"/>
<path d="M4255 383 c-11 -3 -29 -12 -40 -20 -19 -13 -18 -14 10 -7 17 3 37 13
45 20 8 8 12 13 10 13 -3 -1 -14 -4 -25 -6z"/>
<path d="M4268 357 c-7 -8 -19 -12 -26 -9 -17 5 -15 -5 2 -11 8 -3 22 3 32 14
19 21 13 26 -8 6z"/>
<path d="M2776 432 c-3 -4 4 -9 15 -9 23 -2 25 3 4 10 -8 4 -16 3 -19 -1z"/>
<path d="M2686 363 c-6 -14 -5 -15 5 -6 7 7 10 15 7 18 -3 3 -9 -2 -12 -12z"/>
<path d="M3441 3204 c0 -11 3 -14 6 -6 3 7 2 16 -1 19 -3 4 -6 -2 -5 -13z"/>
<path d="M2578 3153 c15 -15 43 -41 62 -57 34 -29 34 -29 -5 14 -45 50 -67 69
-77 70 -4 0 5 -12 20 -27z"/>
<path d="M3350 3160 c-4 -55 -12 -79 -64 -185 -39 -80 -51 -113 -44 -122 7 -9
7 -13 0 -13 -5 0 -13 -19 -16 -42 -6 -47 -13 -83 -16 -83 -1 0 -3 -11 -6 -25
-2 -14 -9 -47 -15 -73 -6 -26 -9 -51 -5 -54 3 -3 8 13 12 36 4 23 11 44 17 48
6 3 7 1 3 -5 -9 -14 3 -62 16 -62 5 0 6 5 3 10 -3 6 -2 10 4 10 5 0 12 8 14
18 4 13 5 11 6 -5 0 -13 5 -23 11 -23 8 0 -16 -66 -30 -80 -5 -5 -7 -21 -15
-105 -4 -48 -1 -40 11 34 l6 35 29 -69 c30 -71 66 -121 66 -91 0 8 -4 13 -8
10 -4 -2 -13 4 -18 15 -15 27 -14 31 7 25 14 -5 14 -4 2 4 -8 6 -18 8 -22 6
-4 -3 -8 2 -8 12 0 12 6 15 21 11 18 -5 20 -3 14 21 -8 27 -7 103 0 111 2 2 0
13 -6 24 -8 14 -8 18 0 13 7 -5 10 17 9 71 0 43 6 129 14 191 8 62 14 148 14
191 -1 76 -1 77 15 52 9 -14 29 -37 45 -51 l29 -25 -21 25 c-29 33 -52 81 -63
127 -7 30 -9 33 -11 13z m-75 -459 c3 -6 -4 -15 -16 -21 -17 -10 -20 -9 -14 1
6 9 3 11 -11 6 -18 -7 -18 -7 0 8 23 17 33 19 41 6z m5 -45 c0 -7 -40 -14 -44
-7 -3 4 6 8 20 9 13 1 24 0 24 -2z m-40 -36 c0 -5 -2 -10 -4 -10 -3 0 -8 5
-11 10 -3 6 -1 10 4 10 6 0 11 -4 11 -10z m65 -125 c-2 -20 0 -47 5 -60 6 -16
6 -25 0 -25 -6 0 -10 9 -10 19 0 11 -5 23 -10 26 -8 5 -8 11 0 20 8 9 8 15 1
20 -7 4 -7 11 2 20 17 20 17 19 12 -20z m-15 -55 c0 -5 -4 -10 -10 -10 -5 0
-10 5 -10 10 0 6 5 10 10 10 6 0 10 -4 10 -10z"/>
<path d="M2613 3154 c0 -16 13 -19 21 -5 3 5 0 11 -7 14 -8 3 -14 -1 -14 -9z"/>
<path d="M2291 3136 c12 -10 60 -16 54 -6 -3 5 -18 10 -32 10 -15 0 -24 -2
-22 -4z"/>
<path d="M2660 3136 c0 -2 7 -9 15 -16 13 -11 14 -10 9 4 -5 14 -24 23 -24 12z"/>
<path d="M2402 3110 c-8 -13 -5 -29 13 -66 13 -27 24 -42 24 -34 3 39 18 43
55 15 20 -15 38 -26 39 -24 1 2 -26 31 -59 65 -54 53 -63 58 -72 44z m36 -75
c-3 -3 -9 2 -12 12 -6 14 -5 15 5 6 7 -7 10 -15 7 -18z"/>
<path d="M3442 3100 c0 -14 2 -19 5 -12 2 6 2 18 0 25 -3 6 -5 1 -5 -13z"/>
<path d="M3476 3105 c-3 -9 -6 -24 -5 -33 0 -9 5 -4 10 12 9 32 6 48 -5 21z"/>
<path d="M3900 3092 c0 -5 7 -9 15 -9 8 0 15 4 15 9 0 4 -7 8 -15 8 -8 0 -15
-4 -15 -8z"/>
<path d="M3117 3030 c-14 -23 -21 -38 -15 -34 7 5 9 -2 5 -22 l-6 -29 14 30
c8 17 14 36 15 43 0 7 4 10 10 7 6 -4 7 1 3 11 -4 12 -3 15 5 10 8 -5 10 -2 6
8 -3 9 -7 16 -8 16 -1 0 -14 -18 -29 -40z"/>
<path d="M3826 3046 c7 -19 20 -21 30 -3 4 6 4 9 -1 5 -4 -4 -14 -3 -22 4 -11
8 -12 7 -7 -6z"/>
<path d="M1280 3000 c-9 -6 -10 -10 -3 -10 6 0 15 5 18 10 8 12 4 12 -15 0z"/>
<path d="M2560 2990 c8 -5 22 -9 30 -9 10 0 8 3 -5 9 -27 12 -43 12 -25 0z"/>
<path d="M3220 2950 c-18 -28 -51 -66 -74 -85 -22 -20 -33 -33 -24 -29 16 5
16 3 1 -35 -9 -22 -19 -38 -23 -36 -4 3 -14 -3 -21 -13 -13 -15 -12 -16 3 -3
16 12 18 11 14 -15 -7 -48 -27 -145 -43 -207 -17 -70 -29 -262 -17 -270 5 -3
8 26 6 69 -4 73 1 86 27 62 11 -11 13 -10 7 2 -4 8 0 6 8 -4 9 -11 16 -16 16
-10 0 5 4 2 10 -6 15 -25 19 -8 24 106 3 101 3 106 -9 61 -26 -101 -30 -46 -6
78 27 143 27 143 72 192 22 25 36 48 33 57 -3 8 2 29 11 46 15 29 29 90 21 90
-2 0 -18 -23 -36 -50z m-10 -110 c-12 -22 -21 -26 -17 -7 2 10 17 26 25 27 1
0 -2 -9 -8 -20z m-96 -147 c-4 -10 -8 -28 -8 -40 -1 -12 -4 -19 -9 -14 -10 10
3 71 15 71 6 0 7 -7 2 -17z m6 -253 c0 -5 -4 -10 -10 -10 -5 0 -10 5 -10 10 0
6 5 10 10 10 6 0 10 -4 10 -10z"/>
<path d="M3900 2956 c0 -2 8 -10 18 -17 15 -13 16 -12 3 4 -13 16 -21 21 -21
13z"/>
<path d="M3586 2927 c3 -10 9 -15 12 -12 3 3 0 11 -7 18 -10 9 -11 8 -5 -6z"/>
<path d="M3741 2924 c0 -11 3 -14 6 -6 3 7 2 16 -1 19 -3 4 -6 -2 -5 -13z"/>
<path d="M3176 2911 c-3 -4 -17 -7 -31 -6 -14 2 -23 -1 -20 -5 3 -5 13 -6 23
-3 15 6 16 5 2 -13 -9 -12 -5 -11 13 5 15 14 27 26 27 28 0 6 -9 3 -14 -6z"/>
<path d="M3606 2887 c3 -10 9 -15 12 -12 3 3 0 11 -7 18 -10 9 -11 8 -5 -6z"/>
<path d="M1671 2824 c0 -11 3 -14 6 -6 3 7 2 16 -1 19 -3 4 -6 -2 -5 -13z"/>
<path d="M2220 2766 c0 -2 7 -7 16 -10 8 -3 12 -2 9 4 -6 10 -25 14 -25 6z"/>
<path d="M3536 2682 c4 -48 2 -62 -7 -56 -7 4 -5 -3 4 -17 9 -13 17 -33 17
-46 0 -12 4 -24 8 -27 10 -6 -2 112 -17 169 -9 36 -10 34 -5 -23z"/>
<path d="M3356 2689 c-3 -17 -2 -38 4 -47 7 -13 9 -5 10 31 0 54 -5 60 -14 16z"/>
<path d="M1650 2687 c0 -10 8 -17 18 -17 9 0 13 4 7 8 -5 4 -13 11 -17 16 -5
5 -8 2 -8 -7z"/>
<path d="M3662 2665 c0 -16 2 -22 5 -12 2 9 2 23 0 30 -3 6 -5 -1 -5 -18z"/>
<path d="M3776 2653 c-4 -18 -11 -31 -14 -30 -4 1 -8 0 -9 -3 -24 -68 -24 -66
-8 -46 14 19 15 18 16 -15 1 -24 5 -14 15 36 14 69 14 120 0 58z"/>
<path d="M1655 2639 c-4 -6 2 -19 14 -30 21 -20 21 -20 21 1 0 12 -4 18 -10
15 -5 -3 -10 -2 -10 4 0 5 6 12 13 14 7 3 6 6 -5 6 -9 1 -20 -4 -23 -10z"/>
<path d="M3717 2643 c-4 -3 -7 -18 -6 -32 1 -26 1 -25 10 3 9 31 7 41 -4 29z"/>
<path d="M3656 2571 c-5 -44 -16 -74 -45 -119 -50 -77 -64 -86 -57 -35 5 31 3
29 -10 -15 -13 -41 -20 -52 -33 -47 -12 5 -13 3 -4 -6 14 -14 33 -4 33 17 0 8
4 13 9 9 5 -3 26 16 47 42 21 27 44 53 51 59 13 11 32 154 21 154 -3 0 -8 -27
-12 -59z"/>
<path d="M3370 2614 c0 -6 7 -19 16 -30 14 -18 14 -18 3 6 -14 31 -19 36 -19
24z"/>
<path d="M1936 2601 c-17 -6 -17 -8 -4 -14 10 -3 19 0 22 9 3 8 4 14 3 13 -1
0 -11 -4 -21 -8z"/>
<path d="M1647 2580 c-3 -11 -1 -18 3 -15 5 3 11 1 14 -4 3 -5 -1 -11 -9 -15
-8 -3 -15 -17 -15 -31 0 -15 4 -24 9 -20 6 3 8 14 6 25 -2 12 0 18 6 15 5 -4
7 -11 4 -16 -10 -15 5 -10 29 9 21 16 22 18 5 36 -17 18 -18 17 -12 -3 3 -12
1 -21 -6 -21 -6 0 -10 3 -10 8 7 43 -14 71 -24 32z"/>
<path d="M3527 2570 c3 -11 7 -20 9 -20 2 0 4 9 4 20 0 11 -4 20 -9 20 -5 0
-7 -9 -4 -20z"/>
<path d="M3701 2564 c0 -11 3 -14 6 -6 3 7 2 16 -1 19 -3 4 -6 -2 -5 -13z"/>
<path d="M1904 2538 l-19 -23 23 19 c21 18 27 26 19 26 -2 0 -12 -10 -23 -22z"/>
<path d="M2416 2530 c10 -16 20 -27 22 -25 3 3 0 11 -6 18 -7 8 -9 16 -6 19 2
3 -2 8 -11 12 -14 5 -14 2 1 -24z"/>
<path d="M3400 2546 c0 -9 -4 -14 -10 -11 -6 4 -7 -1 -3 -11 3 -10 2 -15 -3
-12 -5 3 -10 -25 -12 -66 -2 -50 1 -67 8 -56 5 8 10 33 10 55 0 50 9 85 22 85
6 0 7 -8 4 -17 -4 -10 -4 -14 0 -10 4 4 13 2 20 -4 10 -8 11 -16 3 -31 -6 -10
-9 -24 -7 -29 2 -5 8 3 14 18 9 24 7 33 -18 67 -18 25 -28 33 -28 22z"/>
<path d="M2069 2533 c-13 -16 -12 -17 4 -4 9 7 17 15 17 17 0 8 -8 3 -21 -13z"/>
<path d="M3171 2534 c0 -11 3 -14 6 -6 3 7 2 16 -1 19 -3 4 -6 -2 -5 -13z"/>
<path d="M2171 2470 c-12 -25 -16 -38 -9 -30 17 19 58 42 58 33 0 -5 14 -16
32 -26 l32 -18 -30 -18 c-17 -10 -56 -26 -88 -35 -32 -10 -56 -19 -53 -22 2
-2 17 0 33 6 16 6 46 12 67 12 20 0 40 4 43 9 3 5 -3 6 -13 3 -15 -5 -15 -4
-3 5 10 7 19 6 31 -5 18 -16 64 -20 54 -4 -4 6 -10 8 -15 5 -5 -3 -12 0 -16 6
-4 8 -3 9 4 5 30 -19 6 14 -46 64 l-59 55 -22 -45z"/>
<path d="M3512 2500 c0 -14 2 -19 5 -12 2 6 2 18 0 25 -3 6 -5 1 -5 -13z"/>
<path d="M3410 2470 c-6 -11 -8 -20 -6 -20 3 0 10 9 16 20 6 11 8 20 6 20 -3
0 -10 -9 -16 -20z"/>
<path d="M3185 2471 c-3 -5 -2 -12 3 -15 5 -3 9 1 9 9 0 17 -3 19 -12 6z"/>
<path d="M3160 2440 c-7 -81 3 -123 31 -126 22 -3 23 -5 9 -14 -13 -8 -12 -10
3 -10 22 0 22 5 -4 40 -13 16 -25 53 -29 87 -6 47 -8 52 -10 23z"/>
<path d="M3421 2404 c0 -11 3 -14 6 -6 3 7 2 16 -1 19 -3 4 -6 -2 -5 -13z"/>
<path d="M1955 2370 c3 -5 8 -10 11 -10 2 0 4 5 4 10 0 6 -5 10 -11 10 -5 0
-7 -4 -4 -10z"/>
<path d="M2038 2325 c-26 -14 -50 -30 -54 -37 -6 -10 -4 -11 7 0 22 20 34 14
14 -8 -13 -15 -21 -17 -31 -9 -9 8 -18 5 -33 -10 -12 -12 -24 -22 -28 -22 -14
-2 -48 -29 -37 -29 5 0 18 -13 27 -30 10 -16 21 -30 25 -30 4 0 17 19 29 41
18 32 20 46 12 63 -9 19 -9 20 4 3 14 -16 15 -16 31 8 9 14 35 39 58 55 49 36
40 38 -24 5z m-88 -110 c8 5 5 -5 -6 -23 -12 -21 -21 -28 -25 -20 -4 7 -6 15
-3 19 2 4 -3 10 -12 13 -13 5 -14 9 -4 21 11 13 14 13 25 -1 7 -11 17 -14 25
-9z"/>
<path d="M1900 2216 c0 -2 7 -7 16 -10 8 -3 12 -2 9 4 -6 10 -25 14 -25 6z"/>
<path d="M3122 2294 c-12 -8 -22 -20 -22 -26 0 -7 6 -5 13 4 6 8 21 20 32 26
11 6 15 12 10 12 -6 0 -21 -7 -33 -16z"/>
<path d="M3352 2291 c2 -8 15 -21 29 -30 19 -11 21 -12 9 0 -8 8 -21 21 -29
29 -11 12 -12 12 -9 1z"/>
<path d="M1610 2204 c-24 -9 -29 -13 -14 -13 11 -1 29 6 40 14 22 17 20 17
-26 -1z"/>
<path d="M2814 2199 c-4 -7 0 -9 13 -5 11 4 33 2 49 -4 27 -9 28 -9 10 5 -23
18 -62 20 -72 4z"/>
<path d="M1830 2190 c-17 -11 -99 -29 -147 -32 -18 -1 -33 -6 -33 -10 0 -4
-15 -29 -34 -55 -35 -51 -89 -153 -61 -118 14 17 30 20 128 23 110 4 112 3 87
-14 -14 -10 -31 -24 -38 -31 -7 -7 -72 -57 -143 -110 l-130 -98 38 -6 c21 -3
45 -9 55 -13 21 -9 73 37 154 135 33 40 76 92 97 116 20 25 34 50 31 56 -4 7
-3 9 1 4 5 -4 19 3 31 14 l23 22 -42 27 c-23 15 -48 34 -55 43 -12 14 -9 18
22 31 20 8 36 17 36 20 0 8 -2 7 -20 -4z m-92 -78 c12 -20 29 -47 38 -59 l15
-22 -92 3 c-51 2 -94 7 -96 12 -2 6 13 29 32 51 l35 42 43 -43 c30 -30 32 -31
8 -5 -18 21 -30 42 -27 48 11 18 20 13 44 -27z"/>
<path d="M2768 2193 c7 -3 16 -2 19 1 4 3 -2 6 -13 5 -11 0 -14 -3 -6 -6z"/>
<path d="M1992 2094 c10 -10 20 -16 22 -13 3 3 -5 11 -17 18 -21 13 -21 12 -5
-5z"/>
<path d="M1958 2053 c7 -3 16 -2 19 1 4 3 -2 6 -13 5 -11 0 -14 -3 -6 -6z"/>
<path d="M1506 1895 c-9 -26 -7 -32 5 -12 6 10 9 21 6 23 -2 3 -7 -2 -11 -11z"/>
<path d="M86 1843 c-6 -14 -5 -15 5 -6 7 7 10 15 7 18 -3 3 -9 -2 -12 -12z"/>
<path d="M950 1750 c-9 -17 -8 -20 12 -20 13 0 29 9 36 20 11 18 10 20 -13 20
-14 0 -29 -8 -35 -20z"/>
<path d="M46 1751 c-4 -5 1 -8 9 -7 21 3 31 16 12 16 -9 0 -18 -4 -21 -9z"/>
<path d="M3245 1632 c44 -45 82 -82 84 -82 3 0 -8 13 -23 29 -18 19 -26 36
-22 46 3 9 2 13 -3 10 -5 -3 -12 7 -14 22 l-4 28 -2 -30 -1 -29 -47 44 c-27
25 -12 8 32 -38z"/>
<path d="M827 1679 c-15 -12 -49 -27 -75 -33 -30 -8 -48 -18 -50 -29 -4 -18
23 -24 33 -7 10 16 36 12 51 -7 12 -17 13 -16 14 4 0 12 14 38 31 58 36 40 35
43 -4 14z"/>
<path d="M195 1680 c-3 -5 -3 -10 2 -10 4 0 2 -4 -5 -9 -10 -6 -10 -10 3 -21
13 -11 14 -10 9 5 -5 12 -4 16 3 12 6 -4 14 -1 17 5 3 7 3 3 0 -9 -4 -17 -1
-23 10 -23 12 0 14 5 6 24 -6 17 -5 26 3 30 9 3 9 5 0 5 -6 1 -15 -3 -18 -9
-3 -5 -11 -10 -16 -10 -6 0 -7 5 -4 10 3 6 4 10 1 10 -3 0 -8 -4 -11 -10z"/>
<path d="M1437 1677 c-3 -8 7 -18 25 -25 23 -8 30 -8 34 3 3 8 3 19 -1 25 -9
14 -52 12 -58 -3z"/>
<path d="M256 1645 c4 -8 8 -15 10 -15 2 0 4 7 4 15 0 8 -4 15 -10 15 -5 0 -7
-7 -4 -15z"/>
<path d="M2472 1603 c16 -37 19 -59 15 -107 -7 -74 6 -55 23 36 10 51 11 72 2
90 -6 13 -11 16 -11 8 4 -49 -2 -54 -22 -17 -27 52 -32 46 -7 -10z"/>
<path d="M328 1633 c6 -2 10 -8 8 -12 -3 -4 1 -8 9 -8 11 0 12 4 4 14 -6 7
-17 13 -23 12 -7 0 -6 -2 2 -6z"/>
<path d="M1416 1594 c-9 -23 -2 -28 13 -10 7 8 8 17 3 20 -6 3 -13 -1 -16 -10z"/>
<path d="M465 1569 c-4 -6 -5 -12 -2 -15 2 -3 7 2 10 11 7 17 1 20 -8 4z"/>
<path d="M400 1550 c-9 -6 -10 -10 -3 -10 6 0 15 5 18 10 8 12 4 12 -15 0z"/>
<path d="M487 1411 c-3 -13 -1 -18 9 -14 7 2 10 11 7 19 -7 19 -10 18 -16 -5z"/>
<path d="M1371 1374 c0 -11 3 -14 6 -6 3 7 2 16 -1 19 -3 4 -6 -2 -5 -13z"/>
<path d="M1347 1293 c-21 -65 -74 -151 -131 -213 l-41 -45 43 40 c59 54 128
160 143 218 16 66 8 66 -14 0z"/>
<path d="M480 1262 c0 -12 3 -12 18 -1 9 7 19 14 21 16 2 1 -6 1 -18 0 -11 -1
-21 -8 -21 -15z"/>
<path d="M589 728 c-5 -18 -6 -38 -1 -34 7 8 12 36 6 36 -2 0 -4 -1 -5 -2z"/>
<path d="M575 620 c-4 -6 -1 -9 7 -8 7 2 12 -3 10 -10 -1 -8 2 -11 8 -7 8 5 7
11 -1 21 -14 17 -16 17 -24 4z"/>
<path d="M4482 573 c-6 -2 -10 -9 -6 -14 3 -5 -1 -9 -10 -9 -18 0 -14 -33 5
-38 11 -3 11 -2 1 6 -10 7 -10 11 2 21 12 10 15 9 19 -6 2 -10 3 -6 1 9 -2 15
2 29 9 32 7 2 8 4 2 4 -5 0 -16 -2 -23 -5z"/>
<path d="M4510 551 c0 -5 9 -7 20 -4 11 3 20 7 20 9 0 2 -9 4 -20 4 -11 0 -20
-4 -20 -9z"/>
<path d="M4405 440 c-4 -6 -1 -9 7 -8 9 2 12 -5 10 -22 -2 -14 0 -21 4 -17 13
13 13 36 -1 47 -9 8 -15 8 -20 0z"/>
<path d="M4512 334 c12 -14 15 -24 8 -32 -7 -9 -7 -9 2 -2 19 16 27 12 21 -10
-3 -11 -3 -20 0 -20 2 0 7 9 10 20 4 14 -4 26 -26 42 -29 20 -30 20 -15 2z"/>
<path d="M2724 144 c-18 -14 -18 -15 4 -4 12 6 22 13 22 15 0 8 -5 6 -26 -11z"/>
<path d="M940 20 c0 -5 5 -10 11 -10 5 0 7 5 4 10 -3 6 -8 10 -11 10 -2 0 -4
-4 -4 -10z"/>
</g>
</svg>
